<?xml version="1.0" encoding="UTF-8"?>
<svg id="Layer_2" xmlns="http://www.w3.org/2000/svg" version="1.1" viewBox="0 0 61.3 165.9">
  <!-- Generator: Adobe Illustrator 29.5.1, SVG Export Plug-In . SVG Version: 2.1.0 Build 141)  -->
  <defs>
    <style>
      .st0 {
        stroke-linecap: round;
      }

      .st0, .st1, .st2, .st3 {
        fill: #fff;
      }

      .st0, .st1, .st4 {
        stroke: #0b2750;
      }

      .st0, .st1, .st4, .st3 {
        stroke-linejoin: round;
        stroke-width: .7px;
      }

      .st5 {
        fill: #0b2750;
      }

      .st6 {
        fill: #0d274d;
      }

      .st4 {
        fill: none;
      }

      .st3 {
        stroke: #fff;
      }

      .st7 {
        fill: #0051af;
      }
    </style>
  </defs>
  <g id="network1_svg">
    <g id="ipad_svg">
      <g id="Layer_2-2">
        <g id="all">
          <path id="bg" class="st0" d="M47,74c-.5.2-1,.3-1.5.2L1.6,65.2c-.3,0-.6-.2-.8-.4,0,0-.4-.4-.3-1C.9,62.2,13.3,1.6,13.3,1.6c.1-.7.9-1.2,1.6-1l44.9,9.2c.7.1,1.2.9,1,1.6l-12.5,61.2c-.1.6-.5,1.2-1.1,1.4h-.2c0,0,0,0,0,0Z"/>
          <circle class="st5" cx="36.8" cy="7.7" r=".5"/>
          <circle class="st5" cx="24.6" cy="65.8" r="1.9"/>
          <g id="logo">
            <path id="path10" class="st6" d="M33,26.7s-.3-.1-.5-.2c-.5-.1-.9.1-1,.5,0,.4.1.6.4.8,0,0,0,0,.1,0,.1,0,.2.2.2.3,0,.1-.2.2-.4.1-.2,0-.5-.2-.5-.2v.5c-.1,0,.2.1.5.2.4,0,.9,0,1-.5,0-.3,0-.5-.4-.7h-.1c0-.1-.2-.2-.2-.3,0-.1.2-.1.4-.1.2,0,.4.1.4.2v-.5h0ZM37.5,28.7c0,.3-.4.5-.7.5s-.5-.4-.5-.7.4-.5.7-.5.5.4.5.7h0ZM37.1,27.5c-.7-.1-1.3.3-1.4.9s.2,1.2.9,1.4,1.3-.3,1.4-.9-.2-1.2-.9-1.4h0ZM30.5,28.4h-.5c0-.1.5-2.3.5-2.3h.5c0,.1-.5,2.3-.5,2.3Z"/>
            <path id="path12" class="st6" d="M29.6,26s-.2-.1-.5-.2c-.7-.1-1.3.2-1.4.9-.1.7.3,1.2.9,1.4.2,0,.5,0,.5,0v-.6c.1,0-.1,0-.4,0-.4,0-.5-.4-.5-.7s.4-.5.7-.5c.3,0,.4.2.4.2v-.6c.1,0,.1,0,.1,0Z"/>
            <g id="use14">
              <path id="path12-2" class="st6" d="M35.4,27.2s-.2-.1-.5-.2c-.7-.1-1.3.2-1.4.9-.1.7.3,1.2.9,1.4.2,0,.5,0,.5,0v-.6c.1,0-.1,0-.4,0-.4,0-.5-.4-.5-.7s.4-.5.7-.5c.3,0,.4.2.4.2v-.6c.1,0,.1,0,.1,0Z"/>
            </g>
            <g id="g22">
              <path id="path16" class="st6" d="M31.2,22c0-.1,0-.3-.2-.3s-.3,0-.3.2l-.6,2.9c0,.1,0,.3.2.3s.3,0,.3-.2l.6-2.9ZM29.5,22.7c0-.1,0-.3-.2-.3s-.3,0-.3.2l-.3,1.3c0,.1,0,.3.2.3s.3,0,.3-.2l.3-1.3ZM27.8,23.1c0-.1,0-.3-.2-.3s-.3,0-.3.2v.6c-.2.1,0,.3,0,.3s.3,0,.3-.2v-.6Z"/>
              <g id="use18">
                <path id="path16-2" class="st6" d="M30.7,21.9c0-.1.2-.2.3-.2s.2.2.2.3l-.6,2.9c0,.1-.2.2-.3.2s-.2-.2-.2-.3l.6-2.9ZM32,23.2c0-.1.2-.2.3-.2s.2.2.2.3l-.3,1.3c0,.1-.2.2-.3.2s-.2-.2-.2-.3c0,0,.3-1.3.3-1.3ZM33.3,24.3c0-.1.2-.2.3-.2s.2.2.2.3v.6c-.1.1-.3.2-.5.2s-.2-.2-.2-.3v-.6Z"/>
              </g>
            </g>
            <g id="use20">
              <path id="path16-3" class="st6" d="M36.7,23.1c0-.1.2-.2.3-.2s.2.2.2.3l-.6,2.9c0,.1-.2.2-.3.2s-.2-.2-.2-.3l.6-2.9ZM38,24.4c0-.1.2-.2.3-.2s.2.2.2.3l-.3,1.3c0,.1-.2.2-.3.2s-.2-.2-.2-.3l.3-1.3ZM39.3,25.5c0-.1.2-.2.3-.2s.2.2.2.3v.6c-.1.1-.3.2-.5.2s-.2-.2-.2-.3v-.6Z"/>
              <g id="use18-2">
                <path id="path16-4" class="st6" d="M37.2,23.2c0-.1,0-.3-.2-.3s-.3,0-.3.2l-.6,2.9c0,.1,0,.3.2.3s.3,0,.3-.2l.6-2.9ZM35.5,23.9c0-.1,0-.3-.2-.3s-.3,0-.3.2l-.3,1.3c0,.1,0,.3.2.3s.3,0,.3-.2l.3-1.3ZM33.8,24.4c0-.1,0-.3-.2-.3s-.3,0-.3.2v.6c-.1.1,0,.3.1.3s.3,0,.3-.2v-.6Z"/>
              </g>
            </g>
          </g>
          <path id="slider" class="st7" d="M40.7,36.4c-.1.6-.5,1.2-.9,1.6l-.4.3-.2.2c0,0-.1,0-.2.2-.2,0-.4.1-.5.2-.2,0-1-.1-1.1-.1l-13.1-2.7c-1.6-.3-2.6-1.8-2.2-3.4s.6-1.4,1.2-1.8c.6-.4,1.4-.6,2.2-.4l13.2,2.7c1.6.3,2.6,1.8,2.2,3.4h0Z"/>
        </g>
      </g>
      <g id="hands">
        <g id="hand_2">
          <path id="finger" class="st1" d="M43.6,57.1l1.5-7.5c0-.4,0-.8,0-1.3v-.2c0,0-4.8-11.5-4.8-11.5l-.2-.4-.3-.8v-.2c-.4-.7-1.1-1.1-1.8-1-.2,0-.3,0-.5,0-.5.2-.8.5-1,.9-.2.4-.2.8-.1,1.2v.2s3.8,12.9,3.8,12.9l-2.7,14.1v1.6s0-1.7,0-1.7l-3.8-11.7-.3-.9-.3-1.1c-.2-1-1.2-1.6-2.2-1.3-1,.2-1.6,1.2-1.3,2.2v1.3c.1,0,.1.4.1.4l1.2,13.1c.4,3.9,1.5,7.7,3.4,11.1,0,.1.1.2.2.3l2.5,4.6-7.5,77.8,21.5,6.2s-2.9-77.3-2.6-78.4c1.7-6.6,7.3-28.6,7.4-29.1,0-.4,0-.9,0-1.3-.5-1.3-1.9-2-3.2-1.6"/>
          <path id="fold_color" class="st3" d="M51.1,61.9s1-5.8,1.2-6.9c0,0,0,0,0-.1.1-.6,0-1.3-.4-2-.7-.9-1.9-1.3-3-.9,0,0-1.1,9.1-1.2,9.1"/>
          <path id="fold" class="st4" d="M51.1,61.9s1-5.8,1.2-6.9c0,0,0,0,0-.1.1-.6,0-1.3-.4-2-.7-.9-1.9-1.3-3-.9,0,0,0,0-.1,0"/>
          <path id="finger_fold" class="st2" d="M43.4,58.8c0,0,1.9-9.5,2-9.5,1.3-.5,2.8.2,3.3,1.6.2.4.2.9,0,1.3,0,.6-1.4,7.3-1.4,7.3"/>
          <path id="finger_fold-2" class="st4" d="M45.2,49.4c0,0,.1,0,.2,0,1.3-.5,2.8.2,3.3,1.6.2.4.2.9,0,1.3,0,.6-1.4,7.3-1.4,7.3"/>
          <path id="nail" class="st4" d="M37.9,34.2l.8,1.8c0,.2.2.3.3.4.3.3.9.4,1.3.2"/>
          <path id="nail-2" class="st4" d="M31.3,48.4l.4,1.9c.2.8-.4,1.6-1.2,1.8l-1,.2"/>
        </g>
      </g>
    </g>
  </g>
</svg>