<?xml version="1.0" encoding="UTF-8"?>
<svg id="Layer_2" xmlns="http://www.w3.org/2000/svg" version="1.1" viewBox="0 0 50 120">
  <!-- Generator: Adobe Illustrator 29.5.1, SVG Export Plug-In . SVG Version: 2.1.0 Build 141)  -->
  <defs>
    <style>
      .st0 {
        stroke: #0b2750;
        stroke-linecap: round;
        stroke-linejoin: round;
      }

      .st0, .st1 {
        fill: #fff;
        stroke-width: .7px;
      }

      .st2 {
        fill: #0b2750;
      }

      .st1 {
        stroke: #000;
        stroke-miterlimit: 10;
      }

      .st3 {
        fill: #0051af;
      }
    </style>
  </defs>
  <g id="network1_svg">
    <g id="iphone_svg">
      <g id="iphone">
        <g id="all">
          <rect class="st0" x="20.2" y="1.3" width="25.2" height="51.5" rx="7" ry="7" transform="translate(-5.4 8.4) rotate(-13.5)"/>
          <circle class="st2" cx="27" cy="3.7" r=".5"/>
          <path id="path10" class="st2" d="M30.2,16.8h-.5c-.5.1-.7.5-.6.9,0,.4.4.5.7.5h.1c.1,0,.3,0,.3.2s0,.2-.4.3h-.5v.5h.7c.4-.1.9-.4.7-.9,0-.3-.3-.5-.7-.5h-.2c-.1,0-.3,0-.3-.2s0-.2.3-.3h.4v-.5h-.1.1ZM35.1,16.8c0,.3,0,.6-.4.7s-.6-.1-.7-.4,0-.6.4-.7.6.1.7.4M34.2,15.8c-.7.2-1,.8-.9,1.4s.7,1,1.4.9,1-.8.9-1.4-.7-1-1.4-.9M28.7,19.5h-.5c0,.1-.5-2-.5-2h.5"/>
          <path id="path12" class="st2" d="M26.9,17.7h-.5c-.7.2-1,.8-.9,1.4.2.7.8,1,1.4.8.2,0,.4-.2.5-.2v-.6c-.1,0-.3.2-.6.2s-.7-.1-.7-.4.1-.6.5-.7h.5"/>
          <g id="use14">
            <path id="path12-2" class="st2" d="M32.6,16.3h-.5c-.7.2-1,.8-.9,1.4.2.7.8,1,1.4.8.2,0,.4-.2.5-.2v-.6c0,0-.3.2-.6.2s-.7-.1-.7-.4.1-.6.5-.7h.5"/>
          </g>
          <g id="g22">
            <path id="path16" class="st2" d="M26.6,13.4c0-.1-.2-.2-.3-.2s-.2.2-.2.3l.7,2.9c0,.1.2.2.3.2s.2-.2.2-.3c0,0-.7-2.9-.7-2.9ZM25.4,14.7c0-.1-.2-.2-.3-.2s-.2.2-.2.3l.3,1.3c0,.1.2.2.3.2s.2-.2.2-.3c0,0-.3-1.3-.3-1.3ZM24.1,15.8c0-.1-.2-.2-.3-.2s-.2.2-.2.3v.6c.2.1.3.2.5.2s.2-.2.2-.3"/>
            <g id="use18">
              <path id="path16-2" class="st2" d="M26.1,13.5c0-.1,0-.3.2-.3s.3,0,.3.2l.7,2.9c0,.1,0,.3-.2.3s-.3,0-.3-.2c0,0-.7-2.9-.7-2.9ZM27.8,14.1c0-.1,0-.3.2-.3s.3,0,.3.2l.3,1.3c0,.1,0,.3-.2.3s-.3,0-.3-.2l-.3-1.3ZM29.5,14.5c0-.1,0-.3.2-.3s.3,0,.3.2v.6c.2.1,0,.3,0,.3,0,0-.3,0-.3-.2"/>
            </g>
          </g>
          <g id="use20">
            <path id="path16-3" class="st2" d="M32,12.1c0-.1,0-.3.2-.3s.3,0,.3.2l.7,2.9c0,.1,0,.3-.2.3s-.3,0-.3-.2l-.7-2.9ZM33.8,12.7c0-.1,0-.3.2-.3s.3,0,.3.2l.3,1.3c0,.1,0,.3-.2.3s-.3,0-.3-.2l-.3-1.3ZM35.4,13.1c0-.1,0-.3.2-.3s.3,0,.3.2v.6c.2.1,0,.3,0,.3,0,0-.3,0-.3-.2"/>
            <g id="use18-2">
              <path id="path16-4" class="st2" d="M32.6,11.9c0-.1-.2-.2-.3-.2s-.2.2-.2.3l.7,2.9c0,.1.2.2.3.2s.2-.2.2-.3l-.7-2.9ZM31.3,13.3c0-.1-.2-.2-.3-.2s-.2.2-.2.3l.3,1.3c0,.1.2.2.3.2s.2-.2.2-.3l-.3-1.3ZM30,14.4c0-.1-.2-.2-.3-.2s-.2.2-.2.3v.6c.2.1.3.2.5.2s.2-.2.2-.3"/>
            </g>
          </g>
          <path class="st3" d="M26.8,25.4l10.8-2.6c1.3-.3,2.6.5,2.9,1.8h0c.3,1.3-.5,2.6-1.8,2.9l-10.8,2.6c-1.3.3-2.6-.5-2.9-1.8h0c-.3-1.3.5-2.6,1.8-2.9Z"/>
        </g>
      </g>
      <g id="hands">
        <g id="hand_1">
          <polyline class="st1" points="15.1 37.5 20.7 31.3 22.3 38 17.8 43.8"/>
          <path id="hand_outline" class="st1" d="M23.9,61.3l-1.8-21.4c-.2-1.3.7-2.4,2-2.6,1.3-.2,2.4.7,2.6,2l3.7,22.1s1.5,8.2.6,13.1c-.1.6-12.8,44.5-12.8,44.9L.5,114.6l17.4-44c.7-2.9.7-5.1-.5-8.7l-8.4-22.1c-.3-.8-.4-1.8-.1-2.6l4.4-16.8c.2-.7.7-1.3,1.4-1.6.4-.1.9-.2,1.3,0,.8.2,1.4.7,1.6,1.4.1.4.2.8.1,1.2l-2.6,16.3-.2,1,8.4,15.6"/>
          <path class="st1" d="M12.6,22.7h0c.9.2,1.9-.4,2.1-1.3l.7-2.9"/>
          <path class="st1" d="M22.6,38.1l.4,2.7c.1.8.9,1.3,1.7,1.2h0c.8,0,1.4-.9,1.2-1.7l-.5-2.6"/>
        </g>
      </g>
    </g>
  </g>
</svg>