<?xml version="1.0" encoding="UTF-8"?><svg id="Layer_2" xmlns="http://www.w3.org/2000/svg" width="336.25" height="760.15" viewBox="0 0 336.25 760.15"><defs><style>.cls-1{stroke-linecap:round;stroke-width:.75px;}.cls-1,.cls-2,.cls-3,.cls-4{fill:#fff;}.cls-1,.cls-2,.cls-5{stroke:#0b2750;}.cls-1,.cls-2,.cls-5,.cls-4{stroke-linejoin:round;}.cls-5{fill:none;}.cls-4{stroke:#fff;}</style></defs><g id="Layer_2-2"><g id="laptop"><g id="screen"><path class="cls-1" d="M199.49,121.86l-2.7,3.6c-1.13,1.51-2.91,2.4-4.8,2.4h-49.5c-1.89,0-3.67-.89-4.8-2.4l-2.7-3.6h64.5Z"/><path class="cls-1" d="M334.26.38H1.99C1.09.38.38,1.1.38,2l40,116.36c0,1.94,1.57,3.51,3.51,3.51h248.49c1.94,0,3.51-1.57,3.51-3.51L335.88,2c0-.9-.73-1.62-1.62-1.62h0ZM286.88,108.36H49.88L19.87,13.88h297l-30,94.5h0v-.02Z"/><polygon class="cls-1" points="19.87 13.88 316.88 13.88 286.88 108.37 49.88 108.37 19.87 13.88"/></g><g id="bottom"><path id="base" class="cls-1" d="M294.26,122.37H41.99c-.9,0-1.62.72-1.62,1.62v176.36c0,1.94,1.57,3.51,3.51,3.51h248.49c1.94,0,3.51-1.57,3.51-3.51V124c0-.9-.73-1.62-1.62-1.62h0Z"/><rect id="key_back" class="cls-1" x="54.68" y="140.8" width="227.4" height="87.98"/><rect id="touch_pad" class="cls-1" x="126.62" y="235.08" width="83.52" height="62.6"/><g id="keys"><g id="column"><rect id="key" class="cls-1" x="61.38" y="148.22" width="14" height="14"/><rect id="key-2" class="cls-1" x="61.38" y="168.22" width="14" height="14"/><rect id="key-3" class="cls-1" x="61.38" y="188.22" width="14" height="14"/><rect id="key-4" class="cls-1" x="61.38" y="208.22" width="14" height="14"/></g><g id="column-2"><rect id="key-5" class="cls-1" x="81.38" y="148.22" width="14" height="14"/><rect id="key-6" class="cls-1" x="81.38" y="168.22" width="14" height="14"/><rect id="key-7" class="cls-1" x="81.38" y="188.22" width="14" height="14"/><rect id="key-8" class="cls-1" x="81.38" y="208.22" width="14" height="14"/></g><g id="column-3"><rect id="key-9" class="cls-1" x="101.38" y="148.22" width="14" height="14"/><rect id="key-10" class="cls-1" x="101.38" y="168.22" width="14" height="14"/><rect id="key-11" class="cls-1" x="101.38" y="188.22" width="14" height="14"/><rect id="key-12" class="cls-1" x="101.38" y="208.22" width="14" height="14"/></g><g id="column-4"><rect id="key-13" class="cls-1" x="121.38" y="148.22" width="14" height="14"/><rect id="key-14" class="cls-1" x="121.38" y="168.22" width="14" height="14"/><rect id="key-15" class="cls-1" x="121.38" y="188.22" width="14" height="14"/><rect id="key-16" class="cls-1" x="121.38" y="208.22" width="14" height="14"/></g><g id="column-5"><rect id="key-17" class="cls-1" x="141.38" y="148.22" width="14" height="14"/><rect id="key-18" class="cls-1" x="141.38" y="168.22" width="14" height="14"/><rect id="key-19" class="cls-1" x="141.38" y="188.22" width="14" height="14"/><rect id="key-20" class="cls-1" x="141.38" y="208.22" width="14" height="14"/></g><g id="column-6"><rect id="key-21" class="cls-1" x="161.38" y="148.22" width="14" height="14"/><rect id="key-22" class="cls-1" x="161.38" y="168.22" width="14" height="14"/><rect id="key-23" class="cls-1" x="161.38" y="188.22" width="14" height="14"/><rect id="key-24" class="cls-1" x="161.38" y="208.22" width="14" height="14"/></g><g id="column-7"><rect id="key-25" class="cls-1" x="181.38" y="148.22" width="14" height="14"/><rect id="key-26" class="cls-1" x="181.38" y="168.22" width="14" height="14"/><rect id="key-27" class="cls-1" x="181.38" y="188.22" width="14" height="14"/><rect id="key-28" class="cls-1" x="181.38" y="208.22" width="14" height="14"/></g><g id="column-8"><rect id="key-29" class="cls-1" x="221.38" y="148.22" width="14" height="14"/><rect id="key-30" class="cls-1" x="221.38" y="168.22" width="14" height="14"/><rect id="key-31" class="cls-1" x="221.38" y="188.22" width="14" height="14"/><rect id="key-32" class="cls-1" x="221.38" y="208.22" width="14" height="14"/></g><g id="column-9"><rect id="key-33" class="cls-1" x="201.38" y="148.22" width="14" height="14"/><rect id="key-34" class="cls-1" x="201.38" y="168.22" width="14" height="14"/><rect id="key-35" class="cls-1" x="201.38" y="188.22" width="14" height="14"/><rect id="key-36" class="cls-1" x="201.38" y="208.22" width="14" height="14"/></g><g id="column-10"><rect id="key-37" class="cls-1" x="241.38" y="148.22" width="14" height="14"/><rect id="key-38" class="cls-1" x="241.38" y="168.22" width="14" height="14"/><rect id="key-39" class="cls-1" x="241.38" y="188.22" width="14" height="14"/><rect id="key-40" class="cls-1" x="241.38" y="208.22" width="14" height="14"/></g><g id="column-11"><rect id="key-41" class="cls-1" x="261.39" y="148.22" width="14" height="14"/><rect id="key-42" class="cls-1" x="261.39" y="168.22" width="14" height="14"/><rect id="key-43" class="cls-1" x="261.39" y="188.22" width="14" height="14"/><rect id="key-44" class="cls-1" x="261.39" y="208.22" width="14" height="14"/></g></g></g></g><g id="hands"><g id="hand_2"><path id="finger" class="cls-2" d="M232.65,278.81l2.83-34.27c.1-1.89-.26-3.82-1.14-5.65l-.55-1-27.03-49.06-.94-1.71-1.94-3.51-.5-.7c-1.81-2.85-5.18-4.26-8.42-3.68-.73.12-1.45.36-2.15.7-2.03.99-3.48,2.7-4.18,4.68-.64,1.79-.66,3.78.04,5.67l.33.78,23.54,55.74-4.79,64.46,1.05,7.11-1.28-7.44-22.97-50.27-1.89-3.98-2.13-4.87c-1.61-4.27-6.38-6.44-10.66-4.84-4.27,1.61-6.44,6.38-4.84,10.66l1.3,5.59.24,1.64,12.54,58.13c3.69,17.16,10.71,33.47,20.88,47.78.35.48.69.97,1.05,1.45l13.62,19.01,7.96,351.86,99.39,16.57s-53.84-344.08-53.14-349.36c4.03-30.19,17.55-131.76,17.69-134.08.1-1.9-.26-3.86-1.15-5.71-2.76-5.67-9.56-8.09-15.27-5.45"/><path id="fold_color" class="cls-4" d="M268.5,296.35s1.39-26.52,1.65-31.31c.01-.23.02-.41.03-.53.15-2.92-.76-5.95-3.03-8.51-3.41-3.85-9.09-4.78-13.71-2.51-.18.09-.11,41.19-.3,41.29"/><path id="fold" class="cls-5" d="M268.5,296.35s1.39-26.52,1.65-31.31c.01-.23.02-.41.03-.53.15-2.92-.76-5.95-3.03-8.51-3.41-3.85-9.09-4.78-13.71-2.51-.18.09-.36.18-.53.29"/><path id="finger_fold" class="cls-3" d="M232.54,286.8c.25-.15,3.46-43.53,3.72-43.65,5.75-2.8,12.69-.39,15.49,5.36.89,1.84,1.25,3.8,1.14,5.7-.15,2.73-2.23,33.41-2.23,33.41"/><path id="finger_fold-2" class="cls-5" d="M235.48,243.55c.25-.15.51-.29.77-.41,5.75-2.8,12.69-.39,15.49,5.36.89,1.84,1.25,3.8,1.14,5.7-.15,2.73-2.23,33.41-2.23,33.41"/><path id="nail" class="cls-5" d="M194.96,179.23l4.35,7.74c.37.64.84,1.18,1.39,1.59,1.71,1.31,4.13,1.51,6.07.27"/><path id="nail-2" class="cls-5" d="M172.98,246.44l2.63,8.25c1.16,3.64-.84,7.53-4.48,8.7l-4.56,1.47"/></g></g></g></svg>