<?xml version="1.0" encoding="UTF-8"?><svg id="Layer_2" xmlns="http://www.w3.org/2000/svg" width="314.67" height="696.21" viewBox="0 0 314.67 696.21"><defs><style>.cls-1{fill:#0b2750;}.cls-2{fill:#0d274d;}.cls-3,.cls-4,.cls-5,.cls-6{fill:#fff;}.cls-3,.cls-7,.cls-5,.cls-6{stroke-linejoin:round;}.cls-3,.cls-7,.cls-6{stroke:#0b2750;}.cls-7{fill:none;}.cls-5{stroke:#fff;}.cls-8{fill:#0051af;}.cls-6{stroke-linecap:round;}</style></defs><g id="Layer_2-2"><g id="Layer_2-2"><g id="all"><path id="bg" class="cls-6" d="M215.08,295.76c-1.84,1.52-4.16,2.36-6.55,2.36H6.54c-1.41,0-2.72-.49-3.74-1.29,0,0-2.32-1.52-2.3-4.36C.56,285.27.5,6.54.5,6.54.5,3.21,3.2.5,6.53.5h206.56c3.34,0,6.04,2.7,6.04,6.04v281.36c0,2.86-1.27,5.57-3.48,7.39l-.58.48h.01Z"/><circle class="cls-1" cx="109.82" cy="12.49" r="2.16"/><circle class="cls-1" cx="108.74" cy="279.56" r="8.45"/><g id="logo"><path id="path10" class="cls-2" d="M110.29,99.51c-.08-.02-1.24-.32-2.47-.32-2.34,0-3.75,1.26-3.75,3.14,0,1.66,1.18,2.49,2.59,2.94.16.05.39.12.54.17.63.2,1.13.49,1.13,1,0,.57-.58.94-1.84.94-1.11,0-2.17-.32-2.4-.37v2.31c.12.03,1.39.27,2.74.27,1.94,0,4.16-.85,4.16-3.37,0-1.22-.75-2.35-2.4-2.88l-.7-.22c-.42-.13-1.16-.35-1.16-.96,0-.48.55-.82,1.57-.82.88,0,1.95.29,1.98.31v-2.15h.01ZM131.73,104.4c0,1.46-1.12,2.65-2.62,2.65s-2.62-1.18-2.62-2.65,1.12-2.64,2.62-2.64,2.62,1.18,2.62,2.64h0ZM129.11,99.2c-3.09,0-5.31,2.33-5.31,5.2s2.22,5.21,5.31,5.21,5.31-2.33,5.31-5.21-2.22-5.2-5.31-5.2h0ZM100.67,109.43h-2.54v-10.05h2.54v10.05Z"/><path id="path12" class="cls-2" d="M94.65,99.56c-.24-.07-1.12-.36-2.31-.36-3.09,0-5.35,2.2-5.35,5.2,0,3.24,2.5,5.21,5.35,5.21,1.13,0,2-.27,2.31-.36v-2.7c-.11.06-.94.53-2.13.53-1.69,0-2.78-1.19-2.78-2.68s1.14-2.68,2.78-2.68c1.21,0,2.03.48,2.13.54v-2.7Z"/><g id="use14"><path id="path12-2" class="cls-2" d="M121.13,99.56c-.24-.07-1.12-.36-2.31-.36-3.09,0-5.35,2.2-5.35,5.2,0,3.24,2.5,5.21,5.35,5.21,1.13,0,2-.27,2.31-.36v-2.7c-.11.06-.94.53-2.13.53-1.69,0-2.78-1.19-2.78-2.68s1.14-2.68,2.78-2.68c1.21,0,2.03.48,2.13.54v-2.7Z"/></g><g id="g22"><path id="path16" class="cls-2" d="M98.13,80.37c0-.69-.57-1.25-1.26-1.25s-1.26.56-1.26,1.25v13.35c0,.7.57,1.26,1.26,1.26s1.26-.56,1.26-1.26v-13.35ZM91.21,85.11c0-.69-.57-1.26-1.26-1.26s-1.26.56-1.26,1.26v6.1c0,.7.57,1.26,1.26,1.26s1.26-.56,1.26-1.26v-6.1ZM84.29,88.57c0-.69-.57-1.25-1.26-1.25s-1.26.56-1.26,1.25v2.64c0,.7.57,1.26,1.26,1.26s1.26-.56,1.26-1.26v-2.64Z"/><g id="use18"><path id="path16-2" class="cls-2" d="M95.61,80.37c0-.69.57-1.25,1.26-1.25s1.26.56,1.26,1.25v13.35c0,.7-.57,1.26-1.26,1.26s-1.26-.56-1.26-1.26v-13.35ZM102.53,85.11c0-.69.57-1.26,1.26-1.26s1.26.56,1.26,1.26v6.1c0,.7-.57,1.26-1.26,1.26s-1.26-.56-1.26-1.26v-6.1ZM109.44,88.57c0-.69.57-1.25,1.26-1.25s1.26.56,1.26,1.25v2.64c0,.7-.57,1.26-1.26,1.26s-1.26-.56-1.26-1.26v-2.64Z"/></g></g><g id="use20"><path id="path16-3" class="cls-2" d="M123.27,80.37c0-.69.57-1.25,1.26-1.25s1.26.56,1.26,1.25v13.35c0,.7-.57,1.26-1.26,1.26s-1.26-.56-1.26-1.26v-13.35ZM130.19,85.11c0-.69.57-1.26,1.26-1.26s1.26.56,1.26,1.26v6.1c0,.7-.57,1.26-1.26,1.26s-1.26-.56-1.26-1.26v-6.1ZM137.11,88.57c0-.69.57-1.25,1.26-1.25s1.26.56,1.26,1.25v2.64c0,.7-.57,1.26-1.26,1.26s-1.26-.56-1.26-1.26v-2.64Z"/><g id="use18-2"><path id="path16-4" class="cls-2" d="M125.79,80.37c0-.69-.57-1.25-1.26-1.25s-1.26.56-1.26,1.25v13.35c0,.7.57,1.26,1.26,1.26s1.26-.56,1.26-1.26v-13.35ZM118.87,85.11c0-.69-.57-1.26-1.26-1.26s-1.26.56-1.26,1.26v6.1c0,.7.57,1.26,1.26,1.26s1.26-.56,1.26-1.26v-6.1ZM111.95,88.57c0-.69-.57-1.25-1.26-1.25s-1.26.56-1.26,1.25v2.64c0,.7.57,1.26,1.26,1.26s1.26-.56,1.26-1.26v-2.64Z"/></g></g></g><path id="slider" class="cls-8" d="M153.07,135.44c0,2.89-.94,5.55-2.53,7.7l-1.65,1.92-.92.92c-.3.26-.45.46-.97.94-.75.47-1.61.9-2.21,1.18-.62.48-4.61.3-4.8.32h-60.43c-7.18,0-13-5.82-13-13,0-3.59,1.46-6.84,3.8-9.19,2.36-2.35,5.61-3.8,9.19-3.8h60.51c7.17,0,12.99,5.81,12.99,12.99v.02h.02Z"/></g></g><g id="hands"><g id="hand_2"><path id="finger" class="cls-3" d="M184.75,224.07l-.06-34.39c-.06-1.89-.58-3.79-1.61-5.53l-.63-.95-31.05-46.62-1.09-1.62-2.22-3.33-.56-.66c-2.05-2.68-5.51-3.81-8.7-2.96-.72.18-1.41.48-2.08.88-1.94,1.15-3.24,2.99-3.77,5.01-.49,1.84-.34,3.83.52,5.64l.4.74,28.13,53.56.64,64.64,1.65,6.99-1.9-7.31-27.11-48.17-2.22-3.8-2.53-4.67c-1.96-4.12-6.9-5.88-11.03-3.92-4.12,1.96-5.88,6.9-3.92,11.03l1.76,5.46.38,1.62,17.37,56.87c5.12,16.79,13.48,32.46,24.81,45.86.39.45.77.91,1.17,1.36l15.17,17.8,37.47,349.95,100.43,8.17s-82.53-338.35-82.27-343.67c1.48-30.42,6.43-132.77,6.37-135.09-.06-1.9-.58-3.82-1.62-5.59-3.23-5.42-10.2-7.26-15.67-4.15"/><path id="fold_color" class="cls-5" d="M221.95,238.54s-.84-26.54-.99-31.34c0-.23-.01-.41-.02-.53-.1-2.92-1.26-5.87-3.73-8.22-3.73-3.55-9.46-4-13.87-1.35-.17.11,3.34,41.06,3.17,41.17"/><path id="fold" class="cls-7" d="M221.95,238.54s-.84-26.54-.99-31.34c0-.23-.01-.41-.02-.53-.1-2.92-1.26-5.87-3.73-8.22-3.73-3.55-9.46-4-13.87-1.35-.17.11-.34.21-.5.33"/><path id="finger_fold" class="cls-4" d="M185.31,232.04c.24-.17-.2-43.66.05-43.81,5.5-3.27,12.62-1.46,15.88,4.04,1.04,1.76,1.56,3.68,1.61,5.59.08,2.74.58,33.48.58,33.48"/><path id="finger_fold-2" class="cls-7" d="M184.62,188.69c.24-.17.48-.33.73-.48,5.5-3.27,12.62-1.46,15.88,4.04,1.04,1.76,1.56,3.68,1.61,5.59.08,2.74.58,33.48.58,33.48"/><path id="nail" class="cls-7" d="M138.84,128l4.99,7.35c.42.6.93,1.1,1.52,1.47,1.81,1.17,4.24,1.16,6.07-.24"/><path id="nail-2" class="cls-7" d="M122.58,196.82l3.32,8c1.46,3.53-.21,7.57-3.73,9.04l-4.42,1.84"/></g></g></g></svg>