<?xml version="1.0" encoding="UTF-8"?><svg id="Layer_2" xmlns="http://www.w3.org/2000/svg" width="67.15" height="35.73" viewBox="0 0 67.15 35.73"><defs><style>.cls-1{fill:#07182d;}</style></defs><g id="Layer_2-2"><g id="logo_cisco"><path class="cls-1" d="M36.77,29.63c0,3.8,2.9,6.1,6.22,6.1,1.31,0,2.31-.31,2.68-.42v-3.16c-.13.07-1.09.62-2.47.62-1.96,0-3.23-1.39-3.23-3.14s1.32-3.14,3.23-3.14c1.4,0,2.35.57,2.47.63v-3.16c-.28-.08-1.3-.42-2.68-.42-3.59,0-6.22,2.57-6.22,6.09"/><path class="cls-1" d="M6.05,29.63c0,3.8,2.9,6.1,6.21,6.1,1.32,0,2.32-.31,2.69-.42v-3.16c-.13.07-1.09.62-2.47.62-1.96,0-3.23-1.39-3.23-3.14s1.32-3.14,3.23-3.14c1.41,0,2.35.57,2.47.63v-3.16c-.28-.08-1.3-.42-2.69-.42-3.58,0-6.21,2.57-6.21,6.09"/><path class="cls-1" d="M54.94,23.53c-3.59,0-6.16,2.73-6.16,6.09s2.57,6.1,6.16,6.1,6.16-2.73,6.16-6.1-2.58-6.09-6.16-6.09M54.94,32.73c-1.75,0-3.05-1.39-3.05-3.1s1.3-3.1,3.05-3.1,3.05,1.39,3.05,3.1-1.3,3.1-3.05,3.1"/><path class="cls-1" d="M31.14,28.41l-.81-.26c-.48-.15-1.35-.41-1.35-1.12,0-.57.64-.97,1.82-.97,1.02,0,2.26.35,2.3.36v-2.52c-.09-.02-1.44-.38-2.87-.38-2.72,0-4.35,1.48-4.35,3.68,0,1.95,1.37,2.92,3.01,3.44.18.06.45.15.63.21.73.23,1.31.57,1.31,1.17,0,.67-.67,1.1-2.14,1.1-1.29,0-2.52-.37-2.78-.44v2.71c.15.03,1.61.32,3.18.32,2.25,0,4.83-.99,4.83-3.95,0-1.43-.87-2.76-2.78-3.37"/><path class="cls-1" d="M1.46,9.61c-.8,0-1.46.66-1.46,1.47v3.09c0,.82.66,1.47,1.46,1.47s1.46-.65,1.46-1.47v-3.09c0-.81-.65-1.47-1.46-1.47"/><path class="cls-1" d="M9.49,15.65c.81,0,1.46-.65,1.46-1.47v-7.15c0-.81-.66-1.47-1.46-1.47s-1.46.66-1.46,1.47v7.15c0,.82.65,1.47,1.46,1.47"/><path class="cls-1" d="M17.52,0c-.81,0-1.46.66-1.46,1.47v15.64c0,.82.66,1.48,1.46,1.48s1.46-.66,1.46-1.48V1.48c0-.81-.66-1.47-1.46-1.47"/><path class="cls-1" d="M27.01,14.18v-7.15c0-.81-.65-1.47-1.46-1.47s-1.46.66-1.46,1.47v7.15c0,.82.66,1.47,1.46,1.47s1.46-.65,1.46-1.47"/><path class="cls-1" d="M33.58,9.61c-.81,0-1.46.66-1.46,1.47v3.09c0,.82.66,1.47,1.46,1.47s1.45-.65,1.45-1.47v-3.09c0-.81-.65-1.47-1.45-1.47"/><path class="cls-1" d="M41.61,15.65c.8,0,1.46-.65,1.46-1.47v-7.15c0-.81-.65-1.47-1.46-1.47s-1.46.66-1.46,1.47v7.15c0,.82.65,1.47,1.46,1.47"/><path class="cls-1" d="M51.1,17.11V1.47c0-.81-.65-1.47-1.46-1.47s-1.46.66-1.46,1.47v15.64c0,.82.65,1.48,1.46,1.48s1.46-.66,1.46-1.48"/><path class="cls-1" d="M57.65,15.65c.82,0,1.47-.65,1.47-1.47v-7.15c0-.81-.65-1.47-1.47-1.47s-1.46.66-1.46,1.47v7.15c0,.82.65,1.47,1.46,1.47"/><path class="cls-1" d="M65.69,9.61c-.81,0-1.46.66-1.46,1.47v3.09c0,.82.65,1.47,1.46,1.47s1.46-.65,1.46-1.47v-3.09c0-.81-.66-1.47-1.46-1.47"/><rect class="cls-1" x="18.99" y="23.74" width="2.94" height="11.78"/></g></g></svg>