<?xml version="1.0" encoding="UTF-8"?>
<svg id="Layer_2" xmlns="http://www.w3.org/2000/svg" version="1.1" viewBox="0 0 314.7 696.2">
  <!-- Generator: Adobe Illustrator 29.5.1, SVG Export Plug-In . SVG Version: 2.1.0 Build 141)  -->
  <defs>
    <style>
      .st0 {
        fill: #0b2750;
      }

      .st1 {
        stroke: #fff;
      }

      .st1, .st2, .st3, .st4 {
        fill: #fff;
      }

      .st1, .st2, .st5, .st4 {
        stroke-linejoin: round;
      }

      .st1, .st3, .st5, .st4 {
        stroke-width: 2px;
      }

      .st6 {
        fill: #0d274d;
      }

      .st2 {
        stroke-linecap: round;
        stroke-width: 3px;
      }

      .st2, .st3, .st5, .st4 {
        stroke: #0b2750;
      }

      .st3 {
        stroke-miterlimit: 10;
      }

      .st5 {
        fill: none;
      }

      .st7 {
        fill: #0051af;
      }
    </style>
  </defs>
  <g id="Layer_2-2">
    <g id="Layer_2-21" data-name="Layer_2-2">
      <g id="all">
        <path id="bg" class="st2" d="M215.1,295.8c-1.8,1.5-4.2,2.4-6.6,2.4H6.5c-1.4,0-2.7-.5-3.7-1.3,0,0-2.3-1.5-2.3-4.4C.6,285.3.5,6.5.5,6.5.5,3.2,3.2.5,6.5.5h206.6c3.3,0,6,2.7,6,6v281.4c0,2.9-1.3,5.6-3.5,7.4l-.6.5h0Z"/>
        <circle class="st0" cx="109.8" cy="12.5" r="2.2"/>
        <circle class="st0" cx="108.7" cy="279.6" r="8.5"/>
        <g id="logo">
          <path id="path10" class="st6" d="M110.3,99.5c0,0-1.2-.3-2.5-.3-2.3,0-3.8,1.3-3.8,3.1s1.2,2.5,2.6,2.9c.2,0,.4.1.5.2.6.2,1.1.5,1.1,1s-.6.9-1.8.9-2.2-.3-2.4-.4v2.3c.1,0,1.4.3,2.7.3,1.9,0,4.2-.8,4.2-3.4s-.8-2.3-2.4-2.9l-.7-.2c-.4-.1-1.2-.3-1.2-1s.6-.8,1.6-.8,1.9.3,2,.3v-2.2h0ZM131.7,104.4c0,1.5-1.1,2.7-2.6,2.7s-2.6-1.2-2.6-2.7,1.1-2.6,2.6-2.6,2.6,1.2,2.6,2.6h0ZM129.1,99.2c-3.1,0-5.3,2.3-5.3,5.2s2.2,5.2,5.3,5.2,5.3-2.3,5.3-5.2-2.2-5.2-5.3-5.2h0ZM100.7,109.4h-2.5v-10.1h2.5v10.1Z"/>
          <path id="path12" class="st6" d="M94.7,99.6c-.2,0-1.1-.4-2.3-.4-3.1,0-5.3,2.2-5.3,5.2s2.5,5.2,5.3,5.2,2-.3,2.3-.4v-2.7c-.1,0-.9.5-2.1.5-1.7,0-2.8-1.2-2.8-2.7s1.1-2.7,2.8-2.7,2,.5,2.1.5v-2.7Z"/>
          <g id="use14">
            <path id="path12-2" class="st6" d="M121.1,99.6c-.2,0-1.1-.4-2.3-.4-3.1,0-5.3,2.2-5.3,5.2s2.5,5.2,5.3,5.2,2-.3,2.3-.4v-2.7c-.1,0-.9.5-2.1.5-1.7,0-2.8-1.2-2.8-2.7s1.1-2.7,2.8-2.7,2,.5,2.1.5v-2.7Z"/>
          </g>
          <g id="g22">
            <path id="path16" class="st6" d="M98.1,80.4c0-.7-.6-1.2-1.3-1.2s-1.3.6-1.3,1.2v13.3c0,.7.6,1.3,1.3,1.3s1.3-.6,1.3-1.3v-13.3ZM91.2,85.1c0-.7-.6-1.3-1.3-1.3s-1.3.6-1.3,1.3v6.1c0,.7.6,1.3,1.3,1.3s1.3-.6,1.3-1.3v-6.1ZM84.3,88.6c0-.7-.6-1.2-1.3-1.2s-1.3.6-1.3,1.2v2.6c0,.7.6,1.3,1.3,1.3s1.3-.6,1.3-1.3v-2.6Z"/>
            <g id="use18">
              <path id="path16-2" class="st6" d="M95.6,80.4c0-.7.6-1.2,1.3-1.2s1.3.6,1.3,1.2v13.3c0,.7-.6,1.3-1.3,1.3s-1.3-.6-1.3-1.3v-13.3ZM102.5,85.1c0-.7.6-1.3,1.3-1.3s1.3.6,1.3,1.3v6.1c0,.7-.6,1.3-1.3,1.3s-1.3-.6-1.3-1.3v-6.1ZM109.4,88.6c0-.7.6-1.2,1.3-1.2s1.3.6,1.3,1.2v2.6c0,.7-.6,1.3-1.3,1.3s-1.3-.6-1.3-1.3v-2.6Z"/>
            </g>
          </g>
          <g id="use20">
            <path id="path16-3" class="st6" d="M123.3,80.4c0-.7.6-1.2,1.3-1.2s1.3.6,1.3,1.2v13.3c0,.7-.6,1.3-1.3,1.3s-1.3-.6-1.3-1.3v-13.3ZM130.2,85.1c0-.7.6-1.3,1.3-1.3s1.3.6,1.3,1.3v6.1c0,.7-.6,1.3-1.3,1.3s-1.3-.6-1.3-1.3v-6.1ZM137.1,88.6c0-.7.6-1.2,1.3-1.2s1.3.6,1.3,1.2v2.6c0,.7-.6,1.3-1.3,1.3s-1.3-.6-1.3-1.3v-2.6Z"/>
            <g id="use18-2">
              <path id="path16-4" class="st6" d="M125.8,80.4c0-.7-.6-1.2-1.3-1.2s-1.3.6-1.3,1.2v13.3c0,.7.6,1.3,1.3,1.3s1.3-.6,1.3-1.3v-13.3ZM118.9,85.1c0-.7-.6-1.3-1.3-1.3s-1.3.6-1.3,1.3v6.1c0,.7.6,1.3,1.3,1.3s1.3-.6,1.3-1.3v-6.1ZM111.9,88.6c0-.7-.6-1.2-1.3-1.2s-1.3.6-1.3,1.2v2.6c0,.7.6,1.3,1.3,1.3s1.3-.6,1.3-1.3v-2.6Z"/>
            </g>
          </g>
        </g>
        <path id="slider" class="st7" d="M153.1,135.4c0,2.9-.9,5.6-2.5,7.7l-1.6,1.9-.9.9c-.3.3-.4.5-1,.9-.8.5-1.6.9-2.2,1.2-.6.5-4.6.3-4.8.3h-60.4c-7.2,0-13-5.8-13-13s1.5-6.8,3.8-9.2c2.4-2.3,5.6-3.8,9.2-3.8h60.5c7.2,0,13,5.8,13,13h0s0,0,0,0h0Z"/>
      </g>
    </g>
    <g id="hands">
      <g id="hand_2">
        <path id="finger" class="st4" d="M184.8,224.1v-34.4c-.1-1.9-.6-3.8-1.7-5.5l-.6-.9-31.1-46.6-1.1-1.6-2.2-3.3-.6-.7c-2.1-2.7-5.5-3.8-8.7-3-.7.2-1.4.5-2.1.9-1.9,1.1-3.2,3-3.8,5-.5,1.8-.3,3.8.5,5.6l.4.7,28.1,53.6.6,64.6,1.6,7-1.9-7.3-27.1-48.2-2.2-3.8-2.5-4.7c-2-4.1-6.9-5.9-11-3.9-4.1,2-5.9,6.9-3.9,11l1.8,5.5.4,1.6,17.4,56.9c5.1,16.8,13.5,32.5,24.8,45.9.4.5.8.9,1.2,1.4l15.2,17.8,37.5,350,100.4,8.2s-82.5-338.4-82.3-343.7c1.5-30.4,6.4-132.8,6.4-135.1,0-1.9-.6-3.8-1.6-5.6-3.2-5.4-10.2-7.3-15.7-4.1"/>
        <path id="fold_color" class="st1" d="M221.9,238.5s-.8-26.5-1-31.3c0-.2,0-.4,0-.5-.1-2.9-1.3-5.9-3.7-8.2-3.7-3.6-9.5-4-13.9-1.4-.2.1,3.3,41.1,3.2,41.2"/>
        <path id="fold" class="st5" d="M221.9,238.5s-.8-26.5-1-31.3c0-.2,0-.4,0-.5-.1-2.9-1.3-5.9-3.7-8.2-3.7-3.6-9.5-4-13.9-1.4-.2.1-.3.2-.5.3"/>
        <path id="finger_fold" class="st3" d="M185.3,232c.2-.2-.2-43.7,0-43.8,5.5-3.3,12.6-1.5,15.9,4,1,1.8,1.6,3.7,1.6,5.6,0,2.7.6,33.5.6,33.5"/>
        <path id="finger_fold-2" class="st5" d="M184.6,188.7c.2-.2.5-.3.7-.5,5.5-3.3,12.6-1.5,15.9,4,1,1.8,1.6,3.7,1.6,5.6,0,2.7.6,33.5.6,33.5"/>
        <path id="nail" class="st5" d="M138.8,128l5,7.4c.4.6.9,1.1,1.5,1.5,1.8,1.2,4.2,1.2,6.1-.2"/>
        <path id="nail-2" class="st5" d="M122.6,196.8l3.3,8c1.5,3.5-.2,7.6-3.7,9l-4.4,1.8"/>
      </g>
    </g>
  </g>
</svg>