<?xml version="1.0" encoding="UTF-8"?><svg id="Layer_2" xmlns="http://www.w3.org/2000/svg" width="297.97" height="260.58" viewBox="0 0 297.97 260.58"><defs><style>.cls-1{fill:#a8b2c0;}.cls-1,.cls-2,.cls-3,.cls-4{stroke:#0d274d;stroke-linecap:round;stroke-linejoin:round;stroke-width:2px;}.cls-2{fill:#fff;}.cls-5,.cls-4{fill:#0d274d;}.cls-3{fill:none;}</style></defs><g id="Layer_2-2"><g id="all"><path class="cls-2" d="M165.98,166.1c.09-.69.72-1.25,1.41-1.25h18.69l-2-10.94c-4.19-22.86-24.13-39.45-47.38-39.38h-.03l-49.21.15c-22.29.07-42.5,13.14-51.72,33.45L2.54,221.27c-6.33,18.82,7.68,38.3,27.53,38.3h59.71l64.12-2.7,12.08-90.78h0Z"/><path class="cls-3" d="M32,259.58l13.13-1.82,50.96-7.06c-1.12,0-2.07-.83-2.21-1.95l-.45-3.55v-1.82c-.03-.21-.03-.42,0-.65l1.08-6.19,3.63-17.36c-6.06-.4-12.61-.67-18.69-.67h-47.35"/><path class="cls-1" d="M98.15,219.18l12.34,1.06,41.15,4.61c2.83.32,5.48,1.53,7.57,3.46l14.72,13.52c1.34,1.23,1.43,3.31.21,4.66h0c-1.05,1.16-2.78,1.42-4.13.62l-2.15-1.27-24.89-15.86-41.63-6.67-3.19-4.14h0Z"/><path class="cls-1" d="M156.82,234.39l-7.65-6.66c-1.5-1.3-3.39-2.1-5.37-2.28l-17.28-2.94c-9.51-1.64-18.93-2.73-28.54-3.37l-3.46,17.39,7.21,1.93,12.24,2.77c5.07,1.16,10.35.81,15.21-.99l14.34-5.32,12.21,8.45v-.11l5.01,3.48,1.6,1.11c1.22.84,3.42.84,4.47-.03.1-.08.13-.17.21-.26,1.22-1.36,1.08-3.47-.31-4.67l-4.89-4.26-4.91-4.26"/><path class="cls-4" d="M93.54,242.73v2.46l.45,3.55c.13,1.12,1.08,1.95,2.21,1.95.9,0,1.69-.52,2.05-1.35l.73-1.77,2.75-9.21-.21-.06-6.9-1.77-1.08,6.19h0Z"/><polygon class="cls-5" points="75.94 162.86 63.3 218.51 53.11 218.51 75.94 162.86"/><path class="cls-1" d="M136.8,114.55l.32-14.51c14.76-.44,26.37-12.76,25.93-27.52l-.76-25.53c-.26-8.85-4.8-16.57-11.57-21.24l-68.42,14.21,17.22,58.36v16.34l37.27-.11h0Z"/><path class="cls-1" d="M104.8,54.12c-2-1.65-4.73-2.43-7.6-1.81-3.43.74-6.17,3.57-6.78,7.02-1.03,5.78,2.92,10.11,9.68,10.64"/><path class="cls-5" d="M89.77,62.75c.09-15.51,13.55-9.61,13.55-9.61,0,0,13.06-4.22,11.18-15.74,8.46,6.22,22.51,1.9,20.89-8.47,4.87,5.27,11.88,3.54,18.39.51,4.86,5.41,7.85,12.46,8.36,19.71,9.09-1.35,12.45-13.81,5.27-19.55,6.94-7.91.81-21.3-9.7-21.22-10.48-17.01-28.21-2.86-28.21-2.86,0,0-14.95-11.52-21.23,3.99-7.28-10.41-26.28,1.72-24.33,11.15-9.72-1.27-18.35,9.69-11.38,18.03-11.14.9-9.54,21.36.88,22.25-1.14,1.91-2.44,6.77.58,10.23,5.45,5.13,14.32,3.47,14.32,3.47l9.86,19.19,1.88-23.85s-10.35-2.43-10.32-7.22h0Z"/><path class="cls-2" d="M80.97,256.56c0,.84.34,1.59.89,2.13.54.54,1.29.88,2.13.88h177.58v-4.52l-59.07-.82-42.69-.6-5.46-.09h-70.36c-1.66,0-3.02,1.35-3.02,3.02h0Z"/><path class="cls-2" d="M156.24,259.58h120c1.48,0,2.86-1.21,3.06-2.7l12.18-90.78c.09-.69-.39-1.25-1.08-1.25h-122.91c-.69,0-1.32.55-1.41,1.25l-9.16,68.29-1.19,8.88-1.38,10.27-.45,3.33c-.2,1.49.84,2.7,2.34,2.7h0Z"/><path class="cls-2" d="M161.72,259.58h119.98c1.5,0,2.88-1.21,3.08-2.7l12.18-90.78c.09-.69-.39-1.25-1.08-1.25h-122.91c-.69,0-1.32.55-1.42,1.25l-9.72,72.55-1.08,8.1-.93,6.88-.44,3.24c-.21,1.49.84,2.7,2.34,2.7h0Z"/></g></g></svg>