<?xml version="1.0" encoding="UTF-8"?><svg id="Layer_2" xmlns="http://www.w3.org/2000/svg" width="324.5" height="286.4" viewBox="0 0 324.5 286.4"><defs><style>.cls-1{fill:#c6d6f4;fill-rule:evenodd;stroke:#fff;}.cls-2{fill:#fff;}.cls-2,.cls-3,.cls-4{stroke:#0d274d;stroke-linecap:round;stroke-linejoin:round;stroke-width:2px;}.cls-5,.cls-4{fill:#0d274d;}.cls-3{fill:none;}</style></defs><g id="Layer_2-2"><path class="cls-1" d="M165.79,84.98c85.3-2.1,156.12,41.16,158.17,96.62,2.05,55.46-65.44,102.13-150.74,104.23-85.3,2.1-156.12-41.16-158.17-96.62-2.05-55.46,65.44-102.13,150.74-104.23Z"/><g id="all"><path class="cls-2" d="M197.33,89.03l6.41-20.08c5.95-18.64-5.07-38.43-24.05-43.19l-31.96-8.02c-6.65,4.52-11.14,12.04-11.45,20.69l-.91,24.96c-.52,14.43,11.62,26.3,26.05,26.82v5.36l36.38-.06-.48-6.48"/><path class="cls-2" d="M197.82,95.39l-36.38.07-.17,10.94h-2.85l-6.7-.03c-20.8-.08-38.52,15.07-41.67,35.63l-16.96,110.49h174.58c19.99,0,34.1-19.61,27.73-38.57l-32.84-73.59c-9.14-20.48-29.44-33.7-51.87-33.77l-11.8.08-1.06-11.23"/><path class="cls-3" d="M265.71,211.12h-47.69c-5.48,0-12.71.21-18.18.53"/><polyline class="cls-3" points="217.97 146.33 223.15 158.95 244.55 211.12"/><path class="cls-3" d="M199.67,211.72l4.16,23.8c.24,1.35-.91,2.41-1.14,3.76l-1.53,4.27,64.56,8.94"/><path class="cls-2" d="M187.13,212.87l-41.83,4.63c-2.85.32-5.52,1.54-7.62,3.49l-14.83,13.62c-1.35,1.24-1.44,3.34-.21,4.69h0c1.06,1.17,2.8,1.43,4.16.63l2.17-1.28"/><path class="cls-2" d="M202.56,229.24l-19.31,4.68c-5.1,1.16-10.42.81-15.32-1.01l-14.44-5.35-18.96,13.13c-1.22.85-3.45.84-4.51-.03-.09-.08-.13-.18-.21-.26-1.22-1.37-1.08-3.49.31-4.71l17.58-15.28c1.51-1.31,3.41-2.12,5.41-2.29l17.4-2.97c9.19-1.57,19.83-2.76,29.12-3.42l2.93,17.51h0Z"/><polygon class="cls-5" points="221.56 155.07 234.29 211.12 244.55 211.12 221.56 155.07"/><path class="cls-4" d="M201.15,243.54h0c-.9,0-1.71-.54-2.06-1.37l-.75-1.78-2.76-9.28,7.16-1.84,1.09,6.24v2.48l-.45,3.58c-.14,1.12-1.09,1.96-2.22,1.96h-.01Z"/><path class="cls-4" d="M184.35,49.64c-9.79,5.92-5.92,23.43-7.63,29.05-2.79,9.2-8.13,13.93-17.29,13.85-7.82-.07-17.31,1.43-22.41-8.67-2.4-4.75-1.88-15.81-1.55-20.58,1.34-.19,19.74,1.3,25.09.09,5.37-1.21,10.33-4.03,12.05-14.52.89-5.43,2.18-24.53,2.18-24.53"/><path class="cls-4" d="M192.69,62.93c-8.4,10.85,4.64,26.1,4.64,26.1,4.16-6.32,11.92-21.8,15.82-30.84,3.35-7.76,4.37-12.65,4.8-21.09.15-3.01-.65-7.67-1.66-10.51-.86-2.44-4.13-10.02-11.2-13.92-5.04-2.78-11.52-1.38-16.75-3.79-1.85-.85-3.47-2.13-5.25-3.13-1.78-.99-3.85-1.71-5.84-1.28-1.99.43-3.76,2.34-3.43,4.35-1.6-1.82-3.4-3.74-5.79-4.14-2.39-.39-5.22,1.79-4.46,4.08-2.5-3.11-4.99-6.53-8.92-7.19-4.6-.77-6.77,4.22-6.49,5.42-3.1-4.33-10.43-7.08-15.54-5.58-6.34,1.86-10.93,13.64-2.26,20.38,7.08,5.51,12.33,5.78,17.79,5.78,4.72,0,22-2.45,26.65-3.26,0,0-2.6,25.18,9.56,25.31l8.34,13.3h-.01Z"/><path class="cls-2" d="M138.6,246.98h69.92c1.66,0,3.01,1.35,3.01,3.01h0c0,1.66-1.35,3.01-3.01,3.01H30.93"/><path class="cls-2" d="M16.26,253.01h120c1.49,0,2.54-1.21,2.34-2.71l-12.18-90.77c-.09-.69-.73-1.25-1.42-1.25H2.09c-.69,0-1.18.56-1.08,1.25l12.18,90.77c.2,1.49,1.57,2.71,3.07,2.71h0Z"/><path class="cls-2" d="M183.09,50.61c1.97-1.6,4.64-2.35,7.45-1.72,3.35.75,6.01,3.53,6.59,6.91.97,5.65-3.47,10.44-8.87,10.24"/></g></g></svg>