<?xml version="1.0" encoding="UTF-8"?>
<svg id="Layer_2" xmlns="http://www.w3.org/2000/svg" version="1.1" viewBox="0 0 231.9 403.8">
  <!-- Generator: Adobe Illustrator 29.5.1, SVG Export Plug-In . SVG Version: 2.1.0 Build 141)  -->
  <defs>
    <style>
      .st0 {
        fill: #0b2750;
      }

      .st1, .st2 {
        fill: #fff;
      }

      .st2 {
        stroke-linecap: round;
      }

      .st2, .st3 {
        stroke: #0b2750;
        stroke-linejoin: round;
        stroke-width: 2px;
      }

      .st3 {
        fill: none;
      }

      .st4 {
        fill: #0051af;
      }
    </style>
  </defs>
  <g id="Layer_2-2">
    <g id="Layer_2-21" data-name="Layer_2-2">
      <g id="all">
        <rect class="st2" x="141.1" y=".5" width="90.3" height="184.6" rx="7" ry="7"/>
        <circle class="st0" cx="185.7" cy="6.8" r="1.7"/>
        <path id="path10" class="st0" d="M185.9,55.2c0,0-1-.2-2-.2-1.9,0-3,1-3,2.5s.9,2,2.1,2.3c.1,0,.3,0,.4.1.5.2.9.4.9.8s-.5.7-1.5.7-1.7-.2-1.9-.3v1.8c.1,0,1.1.2,2.2.2,1.5,0,3.3-.7,3.3-2.7s-.6-1.9-1.9-2.3l-.6-.2c-.3,0-.9-.3-.9-.8s.4-.7,1.2-.7,1.5.2,1.6.2v-1.7h0ZM202.9,59.1c0,1.2-.9,2.1-2.1,2.1s-2.1-.9-2.1-2.1.9-2.1,2.1-2.1,2.1.9,2.1,2.1M200.8,55c-2.4,0-4.2,1.8-4.2,4.1s1.8,4.1,4.2,4.1,4.2-1.8,4.2-4.1-1.8-4.1-4.2-4.1M178.3,63.1h-2v-8h2"/>
        <path id="path12" class="st0" d="M173.5,55.3c-.2,0-.9-.3-1.8-.3-2.4,0-4.2,1.8-4.2,4.1s2,4.1,4.2,4.1,1.6-.2,1.8-.3v-2.1c0,0-.7.4-1.7.4s-2.2-.9-2.2-2.1.9-2.1,2.2-2.1,1.6.4,1.7.4"/>
        <g id="use14">
          <path id="path12-2" class="st0" d="M194.5,55.3c-.2,0-.9-.3-1.8-.3-2.4,0-4.2,1.8-4.2,4.1s2,4.1,4.2,4.1,1.6-.2,1.8-.3v-2.1c0,0-.7.4-1.7.4s-2.2-.9-2.2-2.1.9-2.1,2.2-2.1,1.6.4,1.7.4"/>
        </g>
        <g id="g22">
          <path id="path16" class="st0" d="M176.2,40c0-.5-.4-1-1-1s-1,.5-1,1v10.6c0,.5.4,1,1,1s1-.5,1-1v-10.6ZM170.8,43.8c0-.5-.4-1-1-1s-1,.5-1,1v4.8c0,.5.4,1,1,1s1-.5,1-1v-4.8ZM165.3,46.5c0-.5-.4-1-1-1s-1,.5-1,1v2.1c0,.5.4,1,1,1s1-.5,1-1"/>
          <g id="use18">
            <path id="path16-2" class="st0" d="M174.2,40c0-.5.4-1,1-1s1,.5,1,1v10.6c0,.5-.4,1-1,1s-1-.5-1-1v-10.6ZM179.7,43.8c0-.5.4-1,1-1s1,.5,1,1v4.8c0,.5-.4,1-1,1s-1-.5-1-1v-4.8ZM185.2,46.5c0-.5.4-1,1-1s1,.5,1,1v2.1c0,.5-.4,1-1,1s-1-.5-1-1"/>
          </g>
        </g>
        <g id="use20">
          <path id="path16-3" class="st0" d="M196.2,40c0-.5.4-1,1-1s1,.5,1,1v10.6c0,.5-.4,1-1,1s-1-.5-1-1v-10.6ZM201.7,43.8c0-.5.4-1,1-1s1,.5,1,1v4.8c0,.5-.4,1-1,1s-1-.5-1-1v-4.8ZM207.2,46.5c0-.5.4-1,1-1s1,.5,1,1v2.1c0,.5-.4,1-1,1s-1-.5-1-1"/>
          <g id="use18-2">
            <path id="path16-4" class="st0" d="M198.2,40c0-.5-.4-1-1-1s-1,.5-1,1v10.6c0,.5.4,1,1,1s1-.5,1-1v-10.6ZM192.7,43.8c0-.5-.4-1-1-1s-1,.5-1,1v4.8c0,.5.4,1,1,1s1-.5,1-1v-4.8ZM187.2,46.5c0-.5-.4-1-1-1s-1,.5-1,1v2.1c0,.5.4,1,1,1s1-.5,1-1"/>
          </g>
        </g>
        <rect class="st4" x="158.2" y="82.1" width="57.2" height="17.2" rx="8" ry="8"/>
      </g>
    </g>
    <g id="hands">
      <g id="hand_1">
        <polygon class="st1" points="139.9 122.3 115.7 141.8 113.2 117.6 140.5 97.8 139.9 122.3"/>
        <polyline class="st3" points="115.7 114.7 140.6 97.7 140.6 122.4 120 138.9"/>
        <path class="st2" d="M126.6,205.1l11.5-76.2c.5-4.5,4.6-7.8,9.1-7.3,4.5.5,7.8,4.6,7.4,9.1l-5.5,80.1s-1.7,29.8-9,46.3c-.9,2.1-81.7,144.8-82.3,146.2L.5,371.7l97.5-139.2c5-9.5,6.8-17.2,5.7-30.9l-10.9-84.3c-.4-3.2.2-6.4,1.7-9.3l29.3-55.1c1.3-2.4,3.5-4.1,6.2-4.4,1.5-.2,3.1,0,4.7.8,2.6,1.2,4.2,3.6,4.6,6.2.2,1.5,0,2.9-.6,4.3l-22.8,54.8-1.4,3.4,16.2,61.5"/>
        <path class="st3" d="M119.4,60.9h0c3.1,1.5,6.9.3,8.4-2.8l4.9-9.6"/>
        <path class="st3" d="M141.7,123l-.7,9.7c-.2,2.9,2,5.5,4.9,5.7h0c2.9.2,5.5-2,5.7-5l.6-9.4"/>
        <polygon class="st0" points="127.3 106.5 119.3 134.5 115.3 118.5 115.3 114.5 127.3 106.5"/>
      </g>
    </g>
  </g>
</svg>