<?xml version="1.0" encoding="UTF-8"?><svg id="Layer_2" xmlns="http://www.w3.org/2000/svg" width="399.5" height="210.62" viewBox="0 0 399.5 210.62"><defs><style>.cls-1{fill:#07182d;}.cls-2{fill:#fff;}.cls-2,.cls-3{stroke:#0b2750;stroke-miterlimit:10;}.cls-3{fill:none;}</style></defs><g id="cloudsss"><g id="cloud"><g id="Layer_2-2"><g id="Layer_1-2"><g id="all-4"><path id="cloud1" class="cls-2" d="M394.53,165.12c4.2,0,7.7-6.5-.5-9.2,1.5-2.8-1.9-9.2-9.6-7.1-4.9-9.5-12.8-4.6-12.8-4.6,0,0-6.6-7.6-11.5-.7-7.1-2.8-11.7,1-13.2,8.5-8.3-.9-15.4,12.9-1.1,12.9h48.8l-.1.2h0Z"/></g></g></g><g id="Layer_2-24"><g id="Layer_1-24"><g id="all-44"><path id="cloud5" class="cls-2" d="M57.53,210.12c4.2,0,7.7-6.5-.5-9.2,1.5-2.9-1.9-9.2-9.6-7.1-4.9-9.5-12.8-4.6-12.8-4.6,0,0-6.6-7.6-11.5-.7-7.1-2.9-11.7,1-13.3,8.6-8.3-.9-15.5,12.9-1.1,12.9h48.9s-.1.1-.1.1Z"/></g></g></g><g id="Layer_2-29"><g id="Layer_1-29"><g id="all-49"><path id="cloud10" class="cls-2" d="M85.13,164.12c4.5,0,8.3-7-.6-10,1.7-3.1-2-10-10.5-7.7-5.4-10.4-13.9-5-13.9-5,0,0-7.1-8.2-12.5-.7-7.7-3.1-12.7,1.1-14.4,9.3-9.1-1-16.8,14.1-1.2,14.1h53.1Z"/></g></g></g></g><g id="Layer_1-2-2"><g id="Layer_1-21"><g id="network1_svg"><g id="network_group"><line id="Line_3" class="cls-3" x1="157.33" y1=".22" x2="198.33" y2="85.22"/><g id="wifi_svg-2"><path class="cls-1" d="M302.93,136.57c-.5,0-1,0-1.4-.4-6-4.7-14.7-3.6-19.3,2.3-.8.9-2,1-2.8.4s-1-2.1-.4-2.8c6-7.8,17.3-9.2,25.1-3.1.9.8,1,2,.4,2.8s-.9.6-1.4.9h-.1v-.1h-.1Z"/><path class="cls-1" d="M298.13,142.57c-.5,0-1,0-1.4-.4-1.3-1-2.8-1.4-4.5-1.1s-3.2,1-4.1,2.3c-.8.9-1.9,1-2.8.4s-1-2.1-.4-2.8c1.7-2.2,4.1-3.4,6.8-3.8s5.4.4,7.5,2.2c.9.8,1,2.1.4,2.8-.4.4-.9.6-1.4.8h0v-.3h-.1v-.1Z"/><path class="cls-1" d="M307.73,130.37c-.5,0-1,0-1.4-.4-9.5-7.3-23-5.6-30.3,3.7-.8.9-2,1-2.8.4s-1-2.1-.4-2.8c4.2-5.4,10.2-8.7,17-9.7,6.8-.9,13.4,1,18.9,5.2.9.8,1,2.1.4,2.8s-.9.6-1.4.9h0v-.1h0Z"/></g><g id="wifi_svg-2-2"><path class="cls-1" d="M213.53,109.47c-.5,0-1,0-1.4-.5-5.5-5.2-14.3-5-19.4.5-.8.9-2.1.8-2.8,0s-.8-2.1,0-2.8c6.8-7.2,18-7.6,25.3-.8.9.8.8,2.1,0,2.8s-.9.6-1.4.6h-.3v.2Z"/><path class="cls-1" d="M208.13,114.97c-.5,0-1,0-1.4-.5-1.3-1-2.7-1.7-4.4-1.7s-3.2.8-4.4,1.9c-.8.9-1.9.8-2.8,0s-.8-2.1,0-2.8c1.9-1.9,4.4-3.1,7-3.2s5.4.9,7.3,2.8c.9.8.8,2.1,0,2.8-.4.4-.9.6-1.4.5h0v.1l.1.1Z"/><path class="cls-1" d="M218.93,103.87c-.5,0-1,0-1.4-.5-8.7-8.1-22.4-7.8-30.6.9-.8.9-2.1.8-2.8,0s-.8-2.1,0-2.8c4.7-5,11-7.8,17.8-8.1s13.3,2.3,18.4,6.9c.9.8.8,2.1,0,2.8s-.9.6-1.4.6h0v.2Z"/></g><g id="wifi_svg-3"><path class="cls-1" d="M137.63,143.77c-.5,0-1-.3-1.3-.8-4.9-5.9-13.6-6.6-19.5-1.9-.9.8-2.1.6-2.8-.3s-.6-2.1.3-2.8c7.7-6.3,18.9-5.1,25.2,2.4.8.9.6,2.1-.3,2.8-.4.3-1,.5-1.5.5h-.1v.1Z"/><path class="cls-1" d="M131.73,148.67c-.5,0-1-.1-1.3-.8-1-1.3-2.4-2.1-4.1-2.2s-3.3.3-4.5,1.4c-.9.8-2.1.6-2.8-.3s-.6-2.1.3-2.8c2.2-1.7,4.7-2.4,7.4-2.3s5.1,1.7,6.9,3.6c.8.9.6,2.1-.3,2.8-.4.3-1,.5-1.5.4h0c0,.1,0,0,0,0h-.1v.2Z"/><path class="cls-1" d="M143.63,138.87c-.5,0-1-.3-1.3-.8-7.6-9.2-21.2-10.6-30.5-2.9-.9.8-2.1.6-2.8-.3s-.6-2.1.3-2.8c5.2-4.4,12-6.4,18.8-5.6,6.8.6,12.9,4,17.3,9.2.8.9.6,2.1-.3,2.8-.4.3-1,.5-1.5.4h0Z"/></g></g></g></g></g></g></svg>