<?xml version="1.0" encoding="UTF-8"?>
<svg id="Layer_2" xmlns="http://www.w3.org/2000/svg" version="1.1" viewBox="0 0 302.5 290.9">
  <!-- Generator: Adobe Illustrator 29.5.1, SVG Export Plug-In . SVG Version: 2.1.0 Build 141)  -->
  <defs>
    <style>
      .st0 {
        fill: #fff;
      }

      .st0, .st1, .st2 {
        stroke: #0d274d;
        stroke-linecap: round;
        stroke-linejoin: round;
        stroke-width: 2px;
      }

      .st3, .st2 {
        fill: #0d274d;
      }

      .st1 {
        fill: none;
      }
    </style>
  </defs>
  <g id="Layer_2-2">
    <g id="all">
      <path class="st0" d="M145.4,57.4c-6.7,1.9-12,8.4-11.9,15.4h0c.1,5.2,2.8,9.9,7.1,12.7l4.9,3.1,8.2-33.7-8.4,2.5"/>
      <path class="st0" d="M194.9,132.4l4.9-19.2c3.9-15.4-4.5-31.2-19.4-36.5l-29.9-10.8c-6.2,4.1-10.5,10.9-10.9,18.9l-1.3,23c-.7,13.3,9.4,24.6,22.7,25.4l.8,10.6h38.4c0-.1-5.4-11.2-5.4-11.2"/>
      <path class="st0" d="M224.7,89.4c-3.1,8.8-15.8,12.5-23.2,6.7-8.6-6.7-7.6-20.6-15.1-28.5-3.1-3.3-7.3-5.2-10.4-8.4-5.3-5.5-6.5-14.6-2.8-21.2,3.8-6.7,12.2-10.4,19.6-8.6-3.3-6.7-2.7-15.3,1.9-21.2,4.6-5.9,13-8.7,20-6.1,7,2.6,11.7,10.6,10.2,17.9,6.2-7.3,19-8.2,25.6-1.2,6.6,7,4.3,20.5-4.7,24.1,7.8-5,20,.9,20.9,10.1.9,9.2-9.9,17.4-18.5,14,6.8,4.7,6,16-.2,21.3-6.2,5.3-15.7,5.4-23.3,2.2"/>
      <path class="st0" d="M181,86.4s-26.3-8.9-35.8-25.9l-1.4-2.6c4.5-1.6,9.6-3.6,15-3.9l23.2-1.4c2.2-.1,4.5,0,6.7.5,10.2,2.2,18,10.4,22.9,19.2,2.7,4.8,5.8,20.9-3.4,37.5-2.1,3.8-12.1,17.4-12.1,17.4,0,0-7.8-12-9.6-26.5"/>
      <path class="st0" d="M272.3,289.9c20,0,34.1-19.6,27.7-38.6l-36.2-86.7c-4.2-12.5-15.6-20.5-29.4-20.6l-93-.4c-5.6,0-11.1,1.8-15.8,4.9-7.5,5-12.2,13.2-13.3,22.1l-14.7,119.2h174.6Z"/>
      <path class="st1" d="M270.3,248.5h-47.7c-5.3,0-12.8.3-18.2.6"/>
      <polyline class="st0" points="222.6 183.7 227.7 196.3 249.1 248.5"/>
      <path class="st1" d="M204.3,249.1l4.2,23.8c.2,1.4-.9,2.4-1.1,3.8l-1.5,4.3,64.6,8.9"/>
      <path class="st0" d="M191.4,250.2l-41.4,4.6c-2.9.3-5.5,1.5-7.6,3.5l-14.8,13.6c-1.4,1.2-1.4,3.3-.2,4.7h0c1.1,1.2,2.8,1.4,4.2.6l2.2-1.3"/>
      <path class="st0" d="M206.7,267.6l-18.8,3.7c-5.1,1.2-10.4.8-15.3-1l-14.4-5.4-19,13.1c-1.2.9-3.4.8-4.5,0,0,0-.1-.2-.2-.3-1.2-1.4-1.1-3.5.3-4.7l17.6-15.3c1.5-1.3,3.4-2.1,5.4-2.3l17.4-3c10.5-1.8,18.8-2.6,29.4-3.2l1.1,7.1,1.1,11.2"/>
      <polygon class="st3" points="226.2 192.4 238.9 248.5 249.1 248.5 226.2 192.4"/>
      <path class="st2" d="M205.8,280.9h0c-.9,0-1.7-.5-2.1-1.4l-.8-1.8-2.8-9.3,7.2-1.8,1.1,6.2v2.5l-.4,3.6c-.1,1.1-1.1,2-2.2,2h0Z"/>
      <path class="st0" d="M138.6,283.7h69.9c1.7,0,3,1.4,3,3h0c0,1.7-1.3,3-3,3H30.9"/>
      <path class="st0" d="M16.3,289.7h120c1.5,0,2.5-1.2,2.3-2.7l-12.2-90.8c0-.7-.7-1.2-1.4-1.2H2.1c-.7,0-1.2.6-1.1,1.2l12.2,90.8c.2,1.5,1.6,2.7,3.1,2.7Z"/>
      <path class="st0" d="M186.6,100.8c4.5-.3,7.9-4.1,7.6-8.6-.3-4.5-4.1-7.9-8.6-7.6-2,.1-3.9,1-5.2,2.3"/>
    </g>
  </g>
</svg>