<?xml version="1.0" encoding="UTF-8"?>
<svg id="Layer_2" xmlns="http://www.w3.org/2000/svg" version="1.1" viewBox="0 0 324.5 286.4">
  <!-- Generator: Adobe Illustrator 29.5.1, SVG Export Plug-In . SVG Version: 2.1.0 Build 141)  -->
  <defs>
    <style>
      .st0 {
        fill: #c6d6f4;
        fill-rule: evenodd;
        stroke: #fff;
      }

      .st1 {
        fill: #fff;
      }

      .st1, .st2, .st3 {
        stroke: #0d274d;
        stroke-linecap: round;
        stroke-linejoin: round;
        stroke-width: 2px;
      }

      .st4, .st3 {
        fill: #0d274d;
      }

      .st2 {
        fill: none;
      }
    </style>
  </defs>
  <g id="Layer_2-2">
    <path class="st0" d="M158.2,85C72.9,82.9,2.1,126.1,0,181.6c-2,55.5,65.4,102.1,150.7,104.2s156.1-41.2,158.2-96.6c2.1-55.5-65.4-102.1-150.7-104.2h0Z"/>
    <g id="all">
      <path class="st1" d="M126.7,89l-6.4-20.1c-5.9-18.6,5.1-38.4,24.1-43.2l32-8c6.6,4.5,11.1,12,11.4,20.7l.9,25c.5,14.4-11.6,26.3-26.1,26.8v5.4h-36.4c0,0,.5-6.5.5-6.5"/>
      <path class="st1" d="M126.2,95.4h36.4c0,0,.2,11,.2,11h9.6c20.8-.1,38.5,15,41.7,35.6l17,110.5H56.3c-20,0-34.1-19.6-27.7-38.6l32.8-73.6c9.1-20.5,29.4-33.7,51.9-33.8h11.8c0,0,1.1-11.1,1.1-11.1"/>
      <path class="st2" d="M58.3,211.1h47.7c5.5,0,12.7.2,18.2.5"/>
      <polyline class="st2" points="106 146.3 100.9 158.9 79.5 211.1"/>
      <path class="st2" d="M124.3,211.7l-4.2,23.8c-.2,1.4.9,2.4,1.1,3.8l1.5,4.3-64.6,8.9"/>
      <path class="st1" d="M136.9,212.9l41.8,4.6c2.9.3,5.5,1.5,7.6,3.5l14.8,13.6c1.3,1.2,1.4,3.3.2,4.7h0c-1.1,1.2-2.8,1.4-4.2.6l-2.2-1.3"/>
      <path class="st1" d="M121.4,229.2l19.3,4.7c5.1,1.2,10.4.8,15.3-1l14.4-5.4,19,13.1c1.2.9,3.4.8,4.5,0,0,0,.1-.2.2-.3,1.2-1.4,1.1-3.5-.3-4.7l-17.6-15.3c-1.5-1.3-3.4-2.1-5.4-2.3l-17.4-3c-9.2-1.6-19.8-2.8-29.1-3.4l-2.9,17.5h0Z"/>
      <polygon class="st4" points="102.4 155.1 89.7 211.1 79.5 211.1 102.4 155.1"/>
      <path class="st3" d="M122.9,243.5h0c.9,0,1.7-.5,2.1-1.4l.8-1.8,2.8-9.3-7.2-1.8-1.1,6.2v2.5l.4,3.6c.1,1.1,1.1,2,2.2,2h0Z"/>
      <path class="st3" d="M139.7,49.6c9.8,5.9,5.9,23.4,7.6,29.1,2.8,9.2,8.1,13.9,17.3,13.8,7.8,0,17.3,1.4,22.4-8.7,2.4-4.8,1.9-15.8,1.6-20.6-1.3-.2-19.7,1.3-25.1,0-5.4-1.2-10.3-4-12.1-14.5-.9-5.4-2.2-24.5-2.2-24.5"/>
      <path class="st3" d="M131.3,62.9c8.4,10.8-4.6,26.1-4.6,26.1-4.2-6.3-11.9-21.8-15.8-30.8-3.4-7.8-4.4-12.6-4.8-21.1-.1-3,.6-7.7,1.7-10.5.9-2.4,4.1-10,11.2-13.9,5-2.8,11.5-1.4,16.8-3.8,1.9-.9,3.5-2.1,5.2-3.1,1.8-1,3.9-1.7,5.8-1.3,2,.4,3.8,2.3,3.4,4.3,1.6-1.8,3.4-3.7,5.8-4.1,2.4-.4,5.2,1.8,4.5,4.1,2.5-3.1,5-6.5,8.9-7.2,4.6-.8,6.8,4.2,6.5,5.4,3.1-4.3,10.4-7.1,15.5-5.6,6.3,1.9,10.9,13.6,2.3,20.4-7.1,5.5-12.3,5.8-17.8,5.8s-22-2.5-26.6-3.3c0,0,2.6,25.2-9.6,25.3l-8.3,13.3h0Z"/>
      <path class="st1" d="M185.4,247h-69.9c-1.7,0-3,1.4-3,3h0c0,1.7,1.4,3,3,3h177.6"/>
      <path class="st1" d="M307.7,253h-120c-1.5,0-2.5-1.2-2.3-2.7l12.2-90.8c0-.7.7-1.2,1.4-1.2h122.9c.7,0,1.2.6,1.1,1.2l-12.2,90.8c-.2,1.5-1.6,2.7-3.1,2.7h0Z"/>
      <path class="st1" d="M140.9,50.6c-2-1.6-4.6-2.3-7.4-1.7-3.4.8-6,3.5-6.6,6.9-1,5.7,3.5,10.4,8.9,10.2"/>
    </g>
  </g>
</svg>