<?xml version="1.0" encoding="UTF-8"?><svg id="Layer_2" xmlns="http://www.w3.org/2000/svg" width="337.5" height="761.3" viewBox="0 0 337.5 761.3"><defs><style>.cls-1,.cls-2,.cls-3,.cls-4{fill:#fff;}.cls-5{fill:none;}.cls-5,.cls-2,.cls-3,.cls-4{stroke-linejoin:round;}.cls-5,.cls-3,.cls-4{stroke:#0b2750;}.cls-2{stroke:#fff;}.cls-3{stroke-linecap:round;}.cls-3,.cls-4{stroke-width:2px;}</style></defs><g id="Layer_2-2"><g id="laptop"><g id="screen"><path class="cls-3" d="M200.1,122.5l-2.7,3.6c-1.1,1.5-2.9,2.4-4.8,2.4h-49.5c-1.9,0-3.7-.9-4.8-2.4l-2.7-3.6h64.5Z"/><path class="cls-3" d="M334.9,1H2.6c-.9,0-1.6.7-1.6,1.6l40,116.4c0,1.9,1.6,3.5,3.5,3.5h248.5c1.9,0,3.5-1.6,3.5-3.5L336.5,2.6c0-.9-.7-1.6-1.6-1.6h0ZM287.5,109H50.5L20.5,14.5h297l-30,94.5h0Z"/><polygon class="cls-3" points="20.5 14.5 317.5 14.5 287.5 109 50.5 109 20.5 14.5"/></g><g id="bottom"><path id="base" class="cls-3" d="M294.9,123H42.6c-.9,0-1.6.7-1.6,1.6v176.4c0,1.9,1.6,3.5,3.5,3.5h248.5c1.9,0,3.5-1.6,3.5-3.5V124.6c0-.9-.7-1.6-1.6-1.6h0Z"/><rect id="key_back" class="cls-3" x="55.3" y="141.4" width="227.4" height="88"/><rect id="touch_pad" class="cls-3" x="127.2" y="235.7" width="83.5" height="62.6"/><g id="keys"><g id="column"><rect id="key" class="cls-3" x="62" y="148.8" width="14" height="14"/><rect id="key-2" class="cls-3" x="62" y="168.8" width="14" height="14"/><rect id="key-3" class="cls-3" x="62" y="188.8" width="14" height="14"/><rect id="key-4" class="cls-3" x="62" y="208.8" width="14" height="14"/></g><g id="column-2"><rect id="key-5" class="cls-3" x="82" y="148.8" width="14" height="14"/><rect id="key-6" class="cls-3" x="82" y="168.8" width="14" height="14"/><rect id="key-7" class="cls-3" x="82" y="188.8" width="14" height="14"/><rect id="key-8" class="cls-3" x="82" y="208.8" width="14" height="14"/></g><g id="column-3"><rect id="key-9" class="cls-3" x="102" y="148.8" width="14" height="14"/><rect id="key-10" class="cls-3" x="102" y="168.8" width="14" height="14"/><rect id="key-11" class="cls-3" x="102" y="188.8" width="14" height="14"/><rect id="key-12" class="cls-3" x="102" y="208.8" width="14" height="14"/></g><g id="column-4"><rect id="key-13" class="cls-3" x="122" y="148.8" width="14" height="14"/><rect id="key-14" class="cls-3" x="122" y="168.8" width="14" height="14"/><rect id="key-15" class="cls-3" x="122" y="188.8" width="14" height="14"/><rect id="key-16" class="cls-3" x="122" y="208.8" width="14" height="14"/></g><g id="column-5"><rect id="key-17" class="cls-3" x="142" y="148.8" width="14" height="14"/><rect id="key-18" class="cls-3" x="142" y="168.8" width="14" height="14"/><rect id="key-19" class="cls-3" x="142" y="188.8" width="14" height="14"/><rect id="key-20" class="cls-3" x="142" y="208.8" width="14" height="14"/></g><g id="column-6"><rect id="key-21" class="cls-3" x="162" y="148.8" width="14" height="14"/><rect id="key-22" class="cls-3" x="162" y="168.8" width="14" height="14"/><rect id="key-23" class="cls-3" x="162" y="188.8" width="14" height="14"/><rect id="key-24" class="cls-3" x="162" y="208.8" width="14" height="14"/></g><g id="column-7"><rect id="key-25" class="cls-3" x="182" y="148.8" width="14" height="14"/><rect id="key-26" class="cls-3" x="182" y="168.8" width="14" height="14"/><rect id="key-27" class="cls-3" x="182" y="188.8" width="14" height="14"/><rect id="key-28" class="cls-3" x="182" y="208.8" width="14" height="14"/></g><g id="column-8"><rect id="key-29" class="cls-3" x="222" y="148.8" width="14" height="14"/><rect id="key-30" class="cls-3" x="222" y="168.8" width="14" height="14"/><rect id="key-31" class="cls-3" x="222" y="188.8" width="14" height="14"/><rect id="key-32" class="cls-3" x="222" y="208.8" width="14" height="14"/></g><g id="column-9"><rect id="key-33" class="cls-3" x="202" y="148.8" width="14" height="14"/><rect id="key-34" class="cls-3" x="202" y="168.8" width="14" height="14"/><rect id="key-35" class="cls-3" x="202" y="188.8" width="14" height="14"/><rect id="key-36" class="cls-3" x="202" y="208.8" width="14" height="14"/></g><g id="column-10"><rect id="key-37" class="cls-3" x="242" y="148.8" width="14" height="14"/><rect id="key-38" class="cls-3" x="242" y="168.8" width="14" height="14"/><rect id="key-39" class="cls-3" x="242" y="188.8" width="14" height="14"/><rect id="key-40" class="cls-3" x="242" y="208.8" width="14" height="14"/></g><g id="column-11"><rect id="key-41" class="cls-3" x="262" y="148.8" width="14" height="14"/><rect id="key-42" class="cls-3" x="262" y="168.8" width="14" height="14"/><rect id="key-43" class="cls-3" x="262" y="188.8" width="14" height="14"/><rect id="key-44" class="cls-3" x="262" y="208.8" width="14" height="14"/></g></g></g></g><g id="hands"><g id="hand_2"><path id="finger" class="cls-4" d="M233.3,279.4l2.8-34.3c.1-1.9-.3-3.8-1.1-5.6l-.5-1-27-49.1-.9-1.7-1.9-3.5-.5-.7c-1.8-2.8-5.2-4.3-8.4-3.7-.7.1-1.4.4-2.1.7-2,1-3.5,2.7-4.2,4.7-.6,1.8-.7,3.8,0,5.7l.3.8,23.5,55.7-4.8,64.5,1.1,7.1-1.3-7.4-23-50.3-1.9-4-2.1-4.9c-1.6-4.3-6.4-6.4-10.7-4.8-4.3,1.6-6.4,6.4-4.8,10.7l1.3,5.6.2,1.6,12.5,58.1c3.7,17.2,10.7,33.5,20.9,47.8.4.5.7,1,1.1,1.4l13.6,19,8,351.9,99.4,16.6s-53.8-344.1-53.1-349.4c4-30.2,17.6-131.8,17.7-134.1,0-1.9-.3-3.9-1.1-5.7-2.8-5.7-9.6-8.1-15.3-5.5"/><path id="fold_color" class="cls-2" d="M269.1,297s1.4-26.5,1.6-31.3v-.5c.1-2.9-.8-6-3-8.5-3.4-3.9-9.1-4.8-13.7-2.5-.2,0-.1,41.2-.3,41.3"/><path id="fold" class="cls-5" d="M269.1,297s1.4-26.5,1.6-31.3v-.5c.1-2.9-.8-6-3-8.5-3.4-3.9-9.1-4.8-13.7-2.5-.2,0-.4.2-.5.3"/><path id="finger_fold" class="cls-1" d="M233.1,287.4c.2-.1,3.5-43.5,3.7-43.7,5.8-2.8,12.7-.4,15.5,5.4.9,1.8,1.2,3.8,1.1,5.7-.1,2.7-2.2,33.4-2.2,33.4"/><path id="finger_fold-2" class="cls-5" d="M236.1,244.2c.2-.1.5-.3.8-.4,5.8-2.8,12.7-.4,15.5,5.4.9,1.8,1.2,3.8,1.1,5.7-.1,2.7-2.2,33.4-2.2,33.4"/><path id="nail" class="cls-5" d="M195.6,179.8l4.4,7.7c.4.6.8,1.2,1.4,1.6,1.7,1.3,4.1,1.5,6.1.3"/><path id="nail-2" class="cls-5" d="M173.6,247l2.6,8.2c1.2,3.6-.8,7.5-4.5,8.7l-4.6,1.5"/></g></g></g></svg>