<?xml version="1.0" encoding="UTF-8"?>
<svg id="Layer_2" xmlns="http://www.w3.org/2000/svg" version="1.1" viewBox="0 0 298 260.6">
  <!-- Generator: Adobe Illustrator 29.5.1, SVG Export Plug-In . SVG Version: 2.1.0 Build 141)  -->
  <defs>
    <style>
      .st0 {
        fill: #a8b2c0;
      }

      .st0, .st1, .st2, .st3 {
        stroke: #0d274d;
        stroke-linecap: round;
        stroke-linejoin: round;
        stroke-width: 2px;
      }

      .st1 {
        fill: #fff;
      }

      .st4, .st3 {
        fill: #0d274d;
      }

      .st2 {
        fill: none;
      }
    </style>
  </defs>
  <g id="Layer_2-2">
    <g id="all">
      <path class="st1" d="M132,166.1c0-.7-.7-1.2-1.4-1.2h-18.7l2-10.9c4.2-22.9,24.1-39.4,47.4-39.4h0l49.2.2c22.3,0,42.5,13.1,51.7,33.5l33.2,73.1c6.3,18.8-7.7,38.3-27.5,38.3h-59.7l-64.1-2.7-12.1-90.8h0Z"/>
      <path class="st2" d="M266,259.6l-13.1-1.8-51-7.1c1.1,0,2.1-.8,2.2-1.9l.4-3.6v-1.8c0-.2,0-.4,0-.6l-1.1-6.2-3.6-17.4c6.1-.4,12.6-.7,18.7-.7h47.3"/>
      <path class="st0" d="M199.8,219.2l-12.3,1.1-41.2,4.6c-2.8.3-5.5,1.5-7.6,3.5l-14.7,13.5c-1.3,1.2-1.4,3.3-.2,4.7h0c1.1,1.2,2.8,1.4,4.1.6l2.1-1.3,24.9-15.9,41.6-6.7,3.2-4.1h0Z"/>
      <path class="st0" d="M141.2,234.4l7.6-6.7c1.5-1.3,3.4-2.1,5.4-2.3l17.3-2.9c9.5-1.6,18.9-2.7,28.5-3.4l3.5,17.4-7.2,1.9-12.2,2.8c-5.1,1.2-10.3.8-15.2-1l-14.3-5.3-12.2,8.4h0c0-.1-5,3.4-5,3.4l-1.6,1.1c-1.2.8-3.4.8-4.5,0-.1,0-.1-.2-.2-.3-1.2-1.4-1.1-3.5.3-4.7l4.9-4.3,4.9-4.3"/>
      <path class="st3" d="M204.4,242.7v2.5l-.4,3.6c-.1,1.1-1.1,1.9-2.2,1.9s-1.7-.5-2.1-1.4l-.7-1.8-2.8-9.2h.2c0,0,6.9-1.8,6.9-1.8l1.1,6.2h0Z"/>
      <polygon class="st4" points="222 162.9 234.7 218.5 244.9 218.5 222 162.9"/>
      <path class="st0" d="M161.2,114.6l-.3-14.5c-14.8-.4-26.4-12.8-25.9-27.5l.8-25.5c.3-8.8,4.8-16.6,11.6-21.2l68.4,14.2-17.2,58.4v16.3h-37.3c0-.1,0-.1,0-.1Z"/>
      <path class="st0" d="M193.2,54.1c2-1.7,4.7-2.4,7.6-1.8,3.4.7,6.2,3.6,6.8,7,1,5.8-2.9,10.1-9.7,10.6"/>
      <path class="st4" d="M208.2,62.8c0-15.5-13.6-9.6-13.6-9.6,0,0-13.1-4.2-11.2-15.7-8.5,6.2-22.5,1.9-20.9-8.5-4.9,5.3-11.9,3.5-18.4.5-4.9,5.4-7.9,12.5-8.4,19.7-9.1-1.3-12.4-13.8-5.3-19.5-6.9-7.9-.8-21.3,9.7-21.2,10.5-17,28.2-2.9,28.2-2.9,0,0,14.9-11.5,21.2,4,7.3-10.4,26.3,1.7,24.3,11.2,9.7-1.3,18.3,9.7,11.4,18,11.1.9,9.5,21.4-.9,22.2,1.1,1.9,2.4,6.8-.6,10.2-5.4,5.1-14.3,3.5-14.3,3.5l-9.9,19.2-1.9-23.8s10.3-2.4,10.3-7.2h0Z"/>
      <path class="st1" d="M217,256.6c0,.8-.3,1.6-.9,2.1-.5.5-1.3.9-2.1.9H36.4v-4.5l59.1-.8,42.7-.6h5.5c0,0,70.4,0,70.4,0,1.7,0,3,1.4,3,3h0Z"/>
      <path class="st1" d="M141.7,259.6H21.7c-1.5,0-2.9-1.2-3.1-2.7l-12.2-90.8c0-.7.4-1.2,1.1-1.2h122.9c.7,0,1.3.6,1.4,1.2l9.2,68.3,1.2,8.9,1.4,10.3.4,3.3c.2,1.5-.8,2.7-2.3,2.7h0Z"/>
      <path class="st1" d="M136.3,259.6H16.3c-1.5,0-2.9-1.2-3.1-2.7L1,166.1c0-.7.4-1.2,1.1-1.2h122.9c.7,0,1.3.6,1.4,1.2l9.7,72.6,1.1,8.1.9,6.9.4,3.2c.2,1.5-.8,2.7-2.3,2.7h0Z"/>
    </g>
  </g>
</svg>