<?xml version="1.0" encoding="UTF-8"?>
<svg id="Layer_2" xmlns="http://www.w3.org/2000/svg" version="1.1" viewBox="0 0 303.9 242">
  <!-- Generator: Adobe Illustrator 29.5.1, SVG Export Plug-In . SVG Version: 2.1.0 Build 141)  -->
  <defs>
    <style>
      .st0, .st1 {
        fill: #fff;
      }

      .st0, .st2 {
        stroke: #0d274d;
        stroke-linecap: round;
        stroke-linejoin: round;
        stroke-width: 2px;
      }

      .st3 {
        fill: #0d274d;
      }

      .st2 {
        fill: none;
      }
    </style>
  </defs>
  <g id="Layer_2-2">
    <g id="all">
      <path class="st0" d="M215,96.8h14.1c16.9,0,32.1,10.2,38.6,25.8l33.6,80.2c6.3,18.7-7.6,38.1-27.4,38.1H84l17.3-109c3.2-20.4,20.9-35.4,41.6-35.4h0l72,.2h0q0,0,0,.1Z"/>
      <path class="st1" d="M204.5,199.2c-15.1,1-11,.6-26.5,3.2l-17.2,2.9c-2,.2-3.9,1-5.3,2.3l-17.4,15.1c-1.4,1.2-1.5,3.3-.3,4.6,0,0,.1.2.2.3,1.1.9,3.2.9,4.5,0l18.7-13,14.3,5.3c4.8,1.8,10.1,2.1,15.1,1l16.2-3.7"/>
      <path class="st0" d="M216,139c6,42,16,52.7,16,52.7"/>
      <path class="st2" d="M120.4,126.2c-1.3,1.7-9.1,18.7-11.3,39.2"/>
      <path class="st2" d="M143,103v3.1c0,13.6,4,26.9,11.6,38.3l.4.6"/>
      <path class="st2" d="M209,109l-3.3,4.4c-9.7,12.9-16.3,27.8-19.5,43.6l-1.2,6"/>
      <path class="st0" d="M203.5,80.1l5-17.9c5.3-18.9-5.3-38.6-24-44.7l-32.5-10.4c-6.7,3.9-8,14.1-8.9,22.3l-3.4,21.2c-1.5,13.8,4.7,29,18.6,30.5l-5.4,16.4h.2c16.5,7.4,35.3,7.5,51.9.6h.2l-1.8-18.1"/>
      <path class="st3" d="M216.2,142.8l7.2,52.2,9.6-3.3c-9.5-8.4-16.8-48.9-16.8-48.9h0Z"/>
      <path class="st0" d="M189,200.7l-36,4c-2.8.3-5.4,1.5-7.5,3.4l-14.6,13.5c-1.3,1.2-1.4,3.3-.2,4.6h0c1.1,1.2,2.8,1.4,4.1.6l2.1-1.3"/>
      <path class="st0" d="M214.6,198.3c-9.1.6-27.6,2.6-36.7,4.1l-17.2,2.9c-2,.2-3.9,1-5.3,2.3l-17.4,15.1c-1.4,1.2-1.5,3.3-.3,4.6,0,0,.1.2.2.3,1.1.9,3.2.9,4.5,0l18.7-13,17.9,7.8c4.8,1.8,10.1,2.1,15.1,1l16.2-3.7"/>
      <path class="st0" d="M274.6,241l-64.4-6.8c-4-.4-7.3-3.5-7.9-7.5l-3.9-22.9c-.8-4.9,2.5-9.6,7.4-10.4,14.9-2.5,45.7-7.1,70.1-7.1"/>
      <path class="st0" d="M145.3,16.9s9.1,2.4,14.3,2.8c11.7,1,20-.8,24.5-1.2l-.9,30.5,7.3-4.3,8.2,12.2c-8.8,9.9,5.3,23.4,5.3,23.4,0,0,4.8-17.7,9.1-26.1,3.8-7.2,8.7-19.2,4.8-31.5-4.5-14.3-13-18-20.3-19.8-8.9-2.2-31.6-3.1-41,.8s-11.4,13.3-11.4,13.3h.1q0-.1,0-.1Z"/>
      <path class="st0" d="M143.4,235h69.6c1.7,0,3,1.3,3,3h0c0,1.7-1.3,3-3,3H36.2"/>
      <path class="st0" d="M21.6,241h119.4c1.5,0,2.5-1.2,2.3-2.7l-12.1-90.3c0-.7-.7-1.2-1.4-1.2H7.5c-.7,0-1.2.6-1.1,1.2l12.1,90.3c.2,1.5,1.6,2.7,3,2.7h.1Z"/>
      <path class="st0" d="M16.2,241h119.4c1.5,0,2.5-1.2,2.3-2.7l-12.1-90.3c0-.7-.7-1.2-1.4-1.2H2.1c-.7,0-1.2.6-1.1,1.2l12.1,90.3c.2,1.5,1.6,2.7,3.1,2.7h0Z"/>
      <path class="st0" d="M189.3,45.4c2.2-1.5,5.5-2.7,8.3-2.2,3.3.6,5.5,3.8,5.9,7.1.5,5.5-4.1,9.8-9.2,9.2"/>
    </g>
  </g>
</svg>