<?xml version="1.0" encoding="UTF-8"?>
<svg id="Layer_2" xmlns="http://www.w3.org/2000/svg" version="1.1" viewBox="0 0 321.3 252.6">
  <!-- Generator: Adobe Illustrator 29.5.1, SVG Export Plug-In . SVG Version: 2.1.0 Build 141)  -->
  <defs>
    <style>
      .st0 {
        fill: #a8b2c0;
      }

      .st0, .st1, .st2 {
        stroke: #0d274d;
        stroke-linecap: round;
        stroke-linejoin: round;
        stroke-width: 2px;
      }

      .st1 {
        fill: #fff;
      }

      .st2 {
        fill: none;
      }
    </style>
  </defs>
  <g id="Layer_2-2">
    <g id="all">
      <path class="st1" d="M152.9,8.8l-6.9,49c-4.5-3.7-9.4-8-10-13.9-.5-4.6,1.9-9.3,1.1-13.9-.5-2.7-2.1-5-2.6-7.7-.8-4.6,2.3-9.7,6.8-11l11.7-2.6"/>
      <path class="st0" d="M211.8,101.4l-.6-36c-.4-23.5-17.5-43.3-40.6-47.2l-18.5-3.1c-6.5,4.6-10.7,12.2-10.8,20.8l-.3,24.7c-.1,14.3,11.3,26,25.6,26.1l-5.4,20.4,46.1-3.9,4.5-1.8"/>
      <path class="st1" d="M287.7,251.5c20.9,0,35.6-20.5,29-40.3l-35.3-78.6c-9.2-20.4-29.5-33.6-51.8-33.6l-80.8-.2c-22.1,0-41,16-44.6,37.8l-18.6,114.9h202.1Z"/>
      <path class="st2" d="M228.3,139.8c0,14.3,16.7,61.6,16.7,61.6"/>
      <path class="st2" d="M122.3,131.5c-12,18-7.2,35.8-6,42"/>
      <path class="st2" d="M195.4,210.9l-35.6,4c-3,.3-5.8,1.6-8,3.6l-15.5,14.2c-1.4,1.3-1.5,3.5-.2,4.9h0c1.1,1.2,2.9,1.5,4.4.7l2.3-1.3"/>
      <path class="st2" d="M281,251.5c-34.8-.9-64.4-21.3-64.4-21.3l-7.2,1.6-10,2.3c-5.3,1.2-10.9.9-16-1.1l-15.1-7.6-19.8,13.7c-1.3.9-3.6.9-4.7,0-.1,0-.1-.2-.2-.3-1.3-1.4-1.1-3.6.3-4.9l18.4-16c1.6-1.4,3.6-2.2,5.6-2.4l18.2-3.1c13.3-2.3,46.6-8.1,58.8-10.3l36,49.4h0Z"/>
      <path class="st1" d="M149.6,245.5h73.8c1.7,0,3,1.3,3,3h0c0,1.7-1.3,3-3,3H36.2"/>
      <path class="st1" d="M20.7,251.5h126.4c1.6,0,2.7-1.3,2.5-2.9l-12.8-95.6c-.1-.7-.8-1.3-1.5-1.3H5.8c-.7,0-1.2.6-1.1,1.3l12.8,95.6c.2,1.6,1.7,2.9,3.2,2.9h0Z"/>
      <path class="st1" d="M15.1,251.5h126.4c1.6,0,2.7-1.3,2.5-2.9l-12.8-95.6c-.1-.7-.8-1.3-1.5-1.3H.2c-.7,0-1.2.6-1.1,1.3l12.8,95.6c.2,1.6,1.7,2.9,3.2,2.9h0Z"/>
      <path class="st1" d="M200.3,53.5c-5.7,19.4,6.7,28.4,11.2,29.1,0,0,18.9-17.2,10.4-43.2-1.5-4.7-2.4-12.3-4.1-17-3.5-10.1-12.5-18.2-22.9-20.6-8.8-2-17.9-.3-26.6,2.2-8.6,2.5-17.1,5.7-26.1,6.8,0,0,4.8,16,16.6,15.6,3.6-.1,7.4-.8,10.6.7,3.3,1.5,4.9,5.1,7.3,7.8,4.3,4.9,11.8,6.8,17.9,4.5,0,0,6,12.6,5.6,14.1h0Z"/>
      <path class="st0" d="M196.7,56.1c4.9,0,8.9-4,8.7-8.9-.2-4.4-3.8-8.1-8.2-8.3-2.3,0-4.4.7-6,2.1"/>
      <path class="st1" d="M287,251.5h-42v-49.3c2.9-.5,4.7-.8,4.7-.8,0,0,42.6-6.2,53.3-.5"/>
    </g>
  </g>
</svg>