<?xml version="1.0" encoding="UTF-8"?>
<svg id="Layer_2" xmlns="http://www.w3.org/2000/svg" version="1.1" viewBox="0 0 299.2 241.3">
  <!-- Generator: Adobe Illustrator 29.5.1, SVG Export Plug-In . SVG Version: 2.1.0 Build 141)  -->
  <defs>
    <style>
      .st0, .st1, .st2, .st3, .st4 {
        stroke: #0d274d;
        stroke-width: 2px;
      }

      .st0, .st2 {
        fill: #a8b2c0;
        stroke-miterlimit: 10;
      }

      .st1 {
        fill: #fff;
      }

      .st1, .st2, .st3, .st4 {
        stroke-linecap: round;
      }

      .st1, .st3, .st4 {
        stroke-linejoin: round;
      }

      .st5, .st4 {
        fill: #0d274d;
      }

      .st3 {
        fill: none;
      }
    </style>
  </defs>
  <g id="Layer_2-2">
    <g id="all">
      <path class="st4" d="M138,4.9c-7,2.1-12.5,9-12.2,16.4h0c.2,5.4,3.1,10.4,7.7,13.2l5.2,3.2,6.9-30-8.3-2.4"/>
      <path class="st4" d="M136.9,110c-6-10.3-6.7-26.2-1.5-36.9l11.8-1.7,18.9,12,.6,23.2-29.8,3.4h0Z"/>
      <path class="st0" d="M191.2,83l3.9-16.5c4.4-18.3-5.9-37-23.8-43.1l-27.9-9.6c-6.5,4.4-10.8,11.6-11.2,20l-1,24.2c-.6,14,10.3,25.8,24.3,26.3l1.8,11.5h41.6c0,.1-7.8-12.8-7.8-12.8"/>
      <path class="st1" d="M268.9,240.3c20,0,34.1-19.6,27.7-38.6l-36.2-86.7c-4.2-12.5-15.6-20.5-29.4-20.6l-93-.4c-5.6,0-11.1,1.8-15.8,4.9-7.5,5-12.2,13.2-13.3,22.1l-14.7,119.2h174.6Z"/>
      <path class="st3" d="M266.9,198.9h-47.7c-5.6,0-13.5.4-19.1.7"/>
      <polyline class="st1" points="219.2 134.1 224.4 146.8 245.8 198.9"/>
      <path class="st3" d="M266.9,240.3l-64.6-8.9,1.5-4.3c.2-1.4,1.4-2.4,1.1-3.8l-1.5-6.1"/>
      <path class="st0" d="M188,200.7l-41.5,4.6c-2.9.3-5.5,1.5-7.6,3.5l-14.8,13.6c-1.4,1.2-1.4,3.3-.2,4.7h0c1.1,1.2,2.8,1.4,4.2.6l2.2-1.3"/>
      <path class="st0" d="M203.7,217.6l-19.2,4.1c-5.1,1.2-10.4.8-15.3-1l-14.4-5.4-19,13.1c-1.2.9-3.4.8-4.5,0,0,0-.1-.2-.2-.3-1.2-1.4-1.1-3.5.3-4.7l17.6-15.3c1.5-1.3,3.4-2.1,5.4-2.3l17.4-3c9.6-1.6,18.6-2.7,28.3-3.4l3.6,18h0Z"/>
      <polygon class="st5" points="222.8 142.9 235.5 198.9 245.8 198.9 222.8 142.9"/>
      <path class="st4" d="M202.4,231.4h0c-.9,0-1.7-.5-2.1-1.4l-.8-1.8-2.8-9.3,6.9-1.4,1.3,5.8v2.5l-.4,3.6c-.1,1.1-1.1,2-2.2,2h0Z"/>
      <path class="st4" d="M212.5,113.2c-12.1.9-24.6-10.9-28.9-22.2-.1-.3-.3-.7-.4-1.1-4.2-12.1.9-23.8.7-36.6l-4.9-15s-28.2-7.8-40.9-33.5h0s14.3-1.8,19.4-2.1l21.9-1.7c2.1-.2,4.2,0,6.3.4,9.6,1.9,17.2,9.5,21.9,17.8,2.6,4.5,4.4,9.3,5.3,14.4,1,5.7,1.2,11.8,4,17.1,3.8,7.2,11.3,12.8,17.3,18.8,0,0,.2.2.3.3,14.9,15.5,8.7,43.4-22.1,43.4"/>
      <path class="st2" d="M180.9,53.1c4.8.2,8.8-3.6,8.8-8.5,0-4.3-3.5-8-7.8-8.3-2.2-.2-4.3.5-5.9,1.8"/>
      <path class="st1" d="M138.6,234.1h69.9c1.7,0,3,1.4,3,3h0c0,1.7-1.3,3-3,3H30.9v-4.5"/>
      <path class="st1" d="M16.3,240.2h120c1.5,0,2.5-1.2,2.3-2.7l-12.2-90.8c0-.7-.7-1.2-1.4-1.2H2.1c-.7,0-1.2.6-1.1,1.2l12.2,90.8c.2,1.5,1.6,2.7,3.1,2.7h0Z"/>
      <circle class="st1" cx="185.6" cy="57.8" r="9.3"/>
    </g>
  </g>
</svg>