<?xml version="1.0" encoding="UTF-8"?><svg id="Layer_2" xmlns="http://www.w3.org/2000/svg" width="234.84" height="193.96" viewBox="0 0 234.84 193.96"><defs><style>.cls-1{stroke:#0d274d;}.cls-1,.cls-2,.cls-3,.cls-4,.cls-5,.cls-6,.cls-7{stroke-miterlimit:10;}.cls-1,.cls-3{fill:#00bceb;}.cls-8{fill:#0b2750;}.cls-2,.cls-3,.cls-4,.cls-9,.cls-5,.cls-6,.cls-7,.cls-10{stroke:#0b2750;}.cls-2,.cls-10{fill:#fff;}.cls-4{fill:none;}.cls-9,.cls-6{fill:#fbab2c;}.cls-9,.cls-10{stroke-miterlimit:10;stroke-width:1px;}.cls-5{fill:#0051af;}.cls-7{fill:#74bf4b;}</style></defs><g id="Layer_2-2"><g id="all"><path class="cls-4" d="M6.4,7.97l.5,156.9c0,12.52,10.15,22.67,22.67,22.67h194.78"/><line class="cls-4" x1="6.9" y1="129.46" x2="22.15" y2="129.46"/><line class="cls-4" x1="6.9" y1="82.88" x2="22.15" y2="82.88"/><line class="cls-4" x1="6.9" y1="34.96" x2="22.15" y2="34.96"/><path class="cls-4" d="M31.89,163.06h27.4c3.79,0,6.86-3.07,6.86-6.86v-17.16c0-3.79,3.07-6.86,6.86-6.86h32.6c3.79,0,6.86-3.07,6.86-6.86v-17.16c0-3.79,3.07-6.86,6.86-6.86h32.6c3.79,0,6.86-3.07,6.86-6.86v-17.16c0-3.79,3.07-6.86,6.86-6.86h32.6c3.79,0,6.86-3.07,6.86-6.86V28.21"/><path class="cls-5" d="M158.91,167.95h-6.69c-2.83,0-4.57-3.08-3.11-5.51l3.24-5.39,3.44-5.72c1.41-2.35,4.81-2.35,6.23,0l3.44,5.72,3.24,5.39c1.46,2.42-.29,5.51-3.11,5.51h-6.69,0Z"/><path class="cls-7" d="M129.66,103.92h-1.91c-.81,0-1.31-.88-.89-1.57l.93-1.54.98-1.63c.4-.67,1.38-.67,1.78,0l.98,1.63.93,1.54c.42.69-.08,1.57-.89,1.57h-1.91,0Z"/><path class="cls-2" d="M205.14,53.84h-1.91c-.81,0-1.31-.88-.89-1.57l.93-1.54.98-1.63c.4-.67,1.38-.67,1.78,0l.98,1.63.93,1.54c.42.69-.08,1.57-.89,1.57h-1.91,0Z"/><path class="cls-6" d="M61.71,106.19h-5.1c-2.16,0-3.49-2.35-2.38-4.2l2.48-4.12,2.63-4.37c1.08-1.79,3.67-1.79,4.75,0l2.63,4.37,2.48,4.12c1.11,1.85-.22,4.2-2.38,4.2h-5.11Z"/><path class="cls-3" d="M6.4,10.48H1c-.39,0-.63-.42-.43-.76l2.69-4.47L5.98.74c.19-.32.66-.32.86,0l2.72,4.51,2.69,4.47c.2.33-.04.76-.43.76h-5.42Z"/><path class="cls-3" d="M224.36,187.54v-5.4c0-.39.42-.63.76-.43l4.47,2.69,4.51,2.72c.32.19.32.66,0,.86l-4.51,2.72-4.47,2.69c-.33.2-.76-.04-.76-.43v-5.42Z"/><path class="cls-1" d="M65.93,152.02h-1.91c-.81,0-1.31-.88-.89-1.57l.93-1.54.98-1.63c.4-.67,1.38-.67,1.78,0l.98,1.63.93,1.54c.42.69-.08,1.57-.89,1.57h-1.91Z"/><circle class="cls-3" cx="205.14" cy="100.04" r="5.25"/><circle class="cls-2" cx="93.22" cy="131.55" r="2.63"/><circle class="cls-8" cx="158.91" cy="92.16" r="1.31"/><circle class="cls-8" cx="47.98" cy="163.06" r="1.31"/><circle class="cls-8" cx="205.14" cy="63.27" r="1.31"/><circle class="cls-2" cx="61.5" cy="67.21" r="3.94"/><rect class="cls-2" x="202.51" y="125.39" width="5.25" height="15.76" rx="1" ry="1"/><rect class="cls-9" x="157.48" y="131.41" width="3.71" height="3.71" rx=".5" ry=".5" transform="translate(-47.57 151.7) rotate(-45)"/><path class="cls-7" d="M167.35,51.21h-7.03c-2.97,0-4.8-3.24-3.27-5.79l3.41-5.67,3.62-6.02c1.48-2.47,5.06-2.47,6.55,0l3.62,6.02,3.41,5.67c1.53,2.55-.3,5.79-3.27,5.79h-7.04Z"/><rect class="cls-10" x="135.15" y="72.39" width="7.97" height="7.97" rx="1" ry="1" transform="translate(-13.26 120.76) rotate(-45)"/></g></g></svg>