<?xml version="1.0" encoding="UTF-8"?>
<svg id="Layer_2" xmlns="http://www.w3.org/2000/svg" version="1.1" viewBox="0 0 323.1 131.8">
  <!-- Generator: Adobe Illustrator 29.5.1, SVG Export Plug-In . SVG Version: 2.1.0 Build 141)  -->
  <defs>
    <style>
      .st0 {
        fill: #07182d;
      }

      .st1 {
        fill: #fff;
      }

      .st1, .st2 {
        stroke: #0b2750;
        stroke-miterlimit: 10;
      }

      .st2 {
        fill: none;
      }
    </style>
  </defs>
  <g id="Layer_1-2">
    <g id="network1_svg">
      <g id="network_group">
        <polyline class="st2" points="54.3 29.4 154.8 44.1 280.2 24.9"/>
        <line id="Line_3" class="st2" x1="154.1" y1="33.6" x2="154" y2="72.7"/>
        <polyline id="Line_1" class="st2" points="33.3 26.6 33.3 66 52.7 66 53.3 110.3"/>
        <polyline id="Line_1-2" class="st2" points="284.9 33.6 284.9 68 270.3 68 270.3 95.2"/>
        <g id="cloud">
          <path id="cloud-2" class="st1" d="M322.8,35.4c5.5,0,10.1-9.2-.7-13.1,2-4.1-2.5-13.1-12.5-10.2-6.5-13.5-16.8-6.5-16.8-6.5,0,0-8.5-10.8-15-1-9.3-4.1-15.4,1.3-17.3,12.2-10.9-1.3-20.2,18.4-1.5,18.4h63.8v.2h0Z"/>
        </g>
        <g id="cloud-2-2">
          <path id="cloud-2-21" class="st1" d="M69.1,36.6c5.5,0,10.1-9.5-.7-13.5,2-4.2-2.5-13.5-12.6-10.4-6.5-13.9-16.8-6.6-16.8-6.6,0,0-8.5-11.1-15-1C14.6.9,8.5,6.5,6.7,17.7c-10.9-1.3-20.2,18.9-1.5,18.9h63.9,0Z"/>
        </g>
        <g id="cloud-3">
          <path id="cloud-2-3" class="st1" d="M195.4,55.1c6,0,11.1-10.1-.7-14.4,2.1-4.4-2.7-14.4-13.7-11.1-7.2-14.8-18.4-7.1-18.4-7.1,0,0-9.3-11.8-16.4-1.1-10.2-4.4-16.8,1.5-18.9,13.4-11.9-1.4-22.1,20.1-1.7,20.1h69.8v.2h0Z"/>
        </g>
        <g id="wifi_svg-2">
          <path class="st0" d="M280.9,113.8c-.4,0-.8,0-1.1-.3-4.7-3.7-11.5-2.8-15.1,1.8-.6.7-1.6.8-2.2.3s-.8-1.6-.3-2.2c4.7-6.1,13.5-7.2,19.6-2.4.7.6.8,1.6.3,2.2s-.7.5-1.1.7h-.1,0Z"/>
          <path class="st0" d="M277.2,118.5c-.4,0-.8,0-1.1-.3-1-.8-2.2-1.1-3.5-.9s-2.5.8-3.2,1.8c-.6.7-1.5.8-2.2.3s-.8-1.6-.3-2.2c1.3-1.7,3.2-2.7,5.3-3s4.2.3,5.9,1.7c.7.6.8,1.6.3,2.2-.3.3-.7.5-1.1.6h0v-.2Z"/>
          <path class="st0" d="M284.7,108.9c-.4,0-.8,0-1.1-.3-7.4-5.7-18-4.4-23.7,2.9-.6.7-1.6.8-2.2.3s-.8-1.6-.3-2.2c3.3-4.2,8-6.8,13.3-7.6,5.3-.7,10.5.8,14.8,4.1.7.6.8,1.6.3,2.2s-.7.5-1.1.7h0Z"/>
        </g>
        <g id="wifi_svg-2-2">
          <path class="st0" d="M162.6,92.6c-.4,0-.8,0-1.1-.4-4.3-4.1-11.2-3.9-15.2.4-.6.7-1.6.6-2.2,0s-.6-1.6,0-2.2c5.3-5.6,14.1-5.9,19.8-.6.7.6.6,1.6,0,2.2s-.7.5-1.1.5h-.2Z"/>
          <path class="st0" d="M158.4,96.9c-.4,0-.8,0-1.1-.4-1-.8-2.1-1.3-3.4-1.3s-2.5.6-3.4,1.5c-.6.7-1.5.6-2.2,0s-.6-1.6,0-2.2c1.5-1.5,3.4-2.4,5.5-2.5s4.2.7,5.7,2.2c.7.6.6,1.6,0,2.2-.3.3-.7.5-1.1.4h0Z"/>
          <path class="st0" d="M166.8,88.2c-.4,0-.8,0-1.1-.4-6.8-6.3-17.5-6.1-23.9.7-.6.7-1.6.6-2.2,0s-.6-1.6,0-2.2c3.7-3.9,8.6-6.1,13.9-6.3s10.4,1.8,14.4,5.4c.7.6.6,1.6,0,2.2s-.7.5-1.1.5h0Z"/>
        </g>
        <g id="wifi_svg-3">
          <path class="st0" d="M59.5,128c-.4,0-.8-.2-1-.6-3.8-4.6-10.6-5.2-15.2-1.5-.7.6-1.6.5-2.2-.2s-.5-1.6.2-2.2c6-4.9,14.8-4,19.7,1.9.6.7.5,1.6-.2,2.2-.3.2-.8.4-1.2.4h0Z"/>
          <path class="st0" d="M54.9,131.8c-.4,0-.8-.1-1-.6-.8-1-1.9-1.6-3.2-1.7s-2.6.2-3.5,1.1c-.7.6-1.6.5-2.2-.2s-.5-1.6.2-2.2c1.7-1.3,3.7-1.9,5.8-1.8s4,1.3,5.4,2.8c.6.7.5,1.6-.2,2.2-.3.2-.8.4-1.2.3h0c0,.1,0,0,0,0h0Z"/>
          <path class="st0" d="M64.2,124.2c-.4,0-.8-.2-1-.6-5.9-7.2-16.6-8.3-23.8-2.3-.7.6-1.6.5-2.2-.2s-.5-1.6.2-2.2c4.1-3.4,9.4-5,14.7-4.4,5.3.5,10.1,3.1,13.5,7.2.6.7.5,1.6-.2,2.2-.3.2-.8.4-1.2.3h0Z"/>
        </g>
      </g>
    </g>
  </g>
</svg>