<?xml version="1.0" encoding="UTF-8"?><svg id="Layer_2" xmlns="http://www.w3.org/2000/svg" width="303.85" height="241.99" viewBox="0 0 303.85 241.99"><defs><style>.cls-1,.cls-2{fill:#fff;}.cls-1,.cls-3{stroke:#0d274d;stroke-linecap:round;stroke-linejoin:round;stroke-width:2px;}.cls-4{fill:#0d274d;}.cls-3{fill:none;}</style></defs><g id="Layer_2-2"><g id="all"><path class="cls-1" d="M88.83,96.79h-14.1c-16.9,0-32.1,10.2-38.6,25.8L2.53,202.79c-6.3,18.7,7.6,38.1,27.4,38.1h189.9l-17.3-109c-3.2-20.4-20.9-35.4-41.6-35.4h0l-72,.2h0l-.1.1Z"/><path class="cls-2" d="M99.33,199.19c15.1,1,11,.6,26.5,3.2l17.2,2.9c2,.2,3.9,1,5.3,2.3l17.4,15.1c1.4,1.2,1.5,3.3.3,4.6,0,0-.1.2-.2.3-1.1.9-3.2.9-4.5,0l-18.7-13-14.3,5.3c-4.8,1.8-10.1,2.1-15.1,1l-16.2-3.7"/><path class="cls-1" d="M87.83,138.99c-6,42-16,52.7-16,52.7"/><path class="cls-3" d="M183.43,126.19c1.3,1.7,9.1,18.7,11.3,39.2"/><path class="cls-3" d="M160.83,102.99v3.1c0,13.6-4,26.9-11.6,38.3l-.4.6"/><path class="cls-3" d="M94.83,108.99l3.3,4.4c9.7,12.9,16.3,27.8,19.5,43.6l1.2,6"/><path class="cls-1" d="M100.33,80.09l-5-17.9c-5.3-18.9,5.3-38.6,24-44.7l32.5-10.4c6.7,3.9,8,14.1,8.9,22.3l3.4,21.2c1.5,13.8-4.7,29-18.6,30.5l5.4,16.4h-.2c-16.5,7.4-35.3,7.5-51.9.6h-.2l1.8-18.1"/><path class="cls-4" d="M87.63,142.79l-7.2,52.2-9.6-3.3c9.5-8.4,16.8-48.9,16.8-48.9h0Z"/><path class="cls-1" d="M114.83,200.69l36,4c2.8.3,5.4,1.5,7.5,3.4l14.6,13.5c1.3,1.2,1.4,3.3.2,4.6h0c-1.1,1.2-2.8,1.4-4.1.6l-2.1-1.3"/><path class="cls-1" d="M89.23,198.29c9.1.6,27.6,2.6,36.7,4.1l17.2,2.9c2,.2,3.9,1,5.3,2.3l17.4,15.1c1.4,1.2,1.5,3.3.3,4.6,0,0-.1.2-.2.3-1.1.9-3.2.9-4.5,0l-18.7-13-17.9,7.8c-4.8,1.8-10.1,2.1-15.1,1l-16.2-3.7"/><path class="cls-1" d="M29.23,240.99l64.4-6.8c4-.4,7.3-3.5,7.9-7.5l3.9-22.9c.8-4.9-2.5-9.6-7.4-10.4-14.9-2.5-45.7-7.1-70.1-7.1"/><path class="cls-1" d="M158.53,16.89s-9.1,2.4-14.3,2.8c-11.7,1-20-.8-24.5-1.2l.9,30.5-7.3-4.3-8.2,12.2c8.8,9.9-5.3,23.4-5.3,23.4,0,0-4.8-17.7-9.1-26.1-3.8-7.2-8.7-19.2-4.8-31.5,4.5-14.3,13-18,20.3-19.8,8.9-2.2,31.6-3.1,41,.8s11.4,13.3,11.4,13.3h0l-.1-.1Z"/><path class="cls-1" d="M160.43,234.99h-69.6c-1.7,0-3,1.3-3,3h0c0,1.7,1.3,3,3,3h176.8"/><path class="cls-1" d="M282.23,240.99h-119.4c-1.5,0-2.5-1.2-2.3-2.7l12.1-90.3c0-.7.7-1.2,1.4-1.2h122.3c.7,0,1.2.6,1.1,1.2l-12.1,90.3c-.2,1.5-1.6,2.7-3,2.7h-.1Z"/><path class="cls-1" d="M287.63,240.99h-119.4c-1.5,0-2.5-1.2-2.3-2.7l12.1-90.3c0-.7.7-1.2,1.4-1.2h122.3c.7,0,1.2.6,1.1,1.2l-12.1,90.3c-.2,1.5-1.6,2.7-3.1,2.7h0Z"/><path class="cls-1" d="M114.53,45.39c-2.2-1.5-5.5-2.7-8.3-2.2-3.3.6-5.5,3.8-5.9,7.1-.5,5.5,4.1,9.8,9.2,9.2"/></g></g></svg>