<?xml version="1.0" encoding="UTF-8"?><svg id="Layer_2" xmlns="http://www.w3.org/2000/svg" width="345.7" height="708.67" viewBox="0 0 345.7 708.67"><defs><style>.cls-1{fill:#fff;}.cls-1,.cls-2,.cls-3{stroke:#0d274d;stroke-linecap:round;stroke-linejoin:round;stroke-width:2px;}.cls-4,.cls-3{fill:#0d274d;}.cls-2{fill:none;}</style></defs><g id="Layer_2-2"><g id="Layer_2-2"><g id="all"><path class="cls-3" d="M107.8,1.57c13.8-2.6,18.1,4.1,20.2,10.7h0c1.5,4.9.5,10.2-2.7,14.2l-3.6,4.5-15.7-24.6,1.8-4.8"/><path class="cls-3" d="M146.3,95.07c2.1-11.1-2.4-25.5-10.4-33.5l-11.1,2.3-13,16.7,6.8,20.9,27.7-6.5h0v.1Z"/><path class="cls-1" d="M77.7,95.57l-8.9-39.5c-4.5-20.1,8.9-39.8,29.2-43l11.9-1.9c7.1,1.8,13.4,6.9,16.3,14.3l8.6,21.3c4.9,12.3-1,26.3-13.3,31.2l7.4,17.4h-51.1l-.1.2Z"/><path class="cls-3" d="M193.7,685.97l2.9,13.3c0,4,3.4,7.3,7.5,7.4l88.4,1c3.8,0,7.1-2.8,7.4-6.6.1-1.9-.5-3.7-1.6-5.1-1-1.3-2.4-2.2-4-2.6l-14-3.8c-10.2,5.7-22.2,7.6-33.9,5.3l-52.6-8.8h0l-.1-.1h0Z"/><path class="cls-3" d="M1,694.77v3.8c0,5,4,9,9,9h52.4c5.6,0,9.8-5,8.9-10.5l-3-18.1c-.1-.6-.2-1.2-.2-1.7-.2-2-.3-4-.3-6h0l-11.1,7.4c-4.9,3.2-10.7,5-16.5,5h-15.3c-5.4,0-10.3-2.9-13-7.5l-7.5,9.3c-2.1,2.7-3.3,6-3.3,9.4h0l-.1-.1h0Z"/><path class="cls-3" d="M81.9,44.47S115.5,24.27,107.8,1.57h0s-13.3,3-18,4.3l-20.1,5.5c-1.9.5-3.8,1.3-5.5,2.4-8,4.8-12.3,14-13.9,22.8-.9,4.8-1,9.7-.2,14.6.9,5.5,2.7,10.9,1.8,16.5-1.1,7.6-6,15-9.4,22.3,0,.1-.1.2-.2.4-8.4,18.6-5.2,43.9,22.2,34.1h0c11.1-3,6.2-16.6,14.9-24.2,9.1-8.1,6.9-29.2,3-40.7l-.6-14.8"/><path id="arm" class="cls-1" d="M179.6,141.47l146.7-95.5c.9-.6,1.2-1.9.6-2.8h0c-.6-.9-1.7-1.3-2.6-.8l-15.9,7.4,13.8-16.4,20-2.3c1.4-.2,2.4-1.3,2.5-2.7h0c0-1.6-1.2-3-2.8-3h-20c-1.7,0-3.4.6-4.8,1.6l-29.4,19.1-57,26.7s-31.4,6.7-69.1,23c-37.6,16.3,18,45.5,18,45.5h0v.2Z"/><path class="cls-1" d="M15.3,178.57l40,8-3.6,88.4-24.6,103.6-11.8-33.4c-.6-2.4-.8-4.8-.5-7.2l3-24.8c0-2.6-10.5-78.4-2.5-134.6h0Z"/><path class="cls-1" d="M124.8,463.87l68.9,222.1,50.5,8.5,2.8.3c1.8.3,3.8.6,5.7.8h0c9.6.6,19.1-1.5,27.5-6.1l-7.1-2.1-29.3-8.1c-2.7-.8-4.9-3-5.5-5.7l-26.7-209.7h-86.8Z"/><path class="cls-1" d="M11.8,676.07c2.6,4.5,7.5,7.5,13,7.5h15.3c5.9,0,11.6-1.7,16.5-5l11.1-7.3c0-2.4.3-4.7.7-7.1l38.3-200.3c-1-.1-79.5,0-79.5,0l-2.1,189.4c0,4-1.4,7.9-4,11l-9.4,11.7h0l.1.1Z"/><polygon class="cls-4" points="149 463.87 212.5 471.77 211.5 463.87 149 463.87"/><polygon class="cls-4" points="43.9 463.87 44.1 463.87 105.2 471.77 106.7 463.87 43.9 463.87"/><path class="cls-1" d="M177.8,149.57c-.9,4.5-6.5,27.7-5.9,31.6l14.6,64.1c.7,2.6-1.2,5.1-3.9,5.1H43.3s.1-38,4.6-64.9l-36.7-7.4,8-48.2c3.2-17.7,21.8-34.3,39.8-34.3h8.1l87.3-.4c14.2,0,30.4-14.2,46.4-15.2l13,42-23,16-13,11.7v-.1h0Z"/><path class="cls-1" d="M47.7,185.37c.9-5.2,2.3-11.5,3.6-15.4"/><path class="cls-2" d="M163.8,129.87c17.6,17.6,12.1,36.8,9,51.3"/><path class="cls-1" d="M27,463.87l.2-84.9c0-44-8.6-88,16.9-128.9l135.8.4c9.1,24,16.1,50.4,21.7,76.1h0c15.2,71,18.4,137.3,18.4,137.3H27.1"/><path class="cls-1" d="M84.8,58.27c-4.2,1.7-9-.5-10.5-4.8-1.4-3.9.6-8.2,4.3-9.9,1.9-.8,4-.9,5.9-.2"/><circle class="cls-1" cx="82.2" cy="63.97" r="8.8" transform="translate(-9.85 15.23) rotate(-9.99)"/></g></g></g></svg>