<?xml version="1.0" encoding="UTF-8"?><svg id="Layer_2" xmlns="http://www.w3.org/2000/svg" width="231.86" height="403.79" viewBox="0 0 231.86 403.79"><defs><style>.cls-1{fill:#0b2750;}.cls-2,.cls-3{fill:none;}.cls-2,.cls-3,.cls-4{stroke:#0b2750;stroke-linejoin:round;}.cls-2,.cls-4{stroke-linecap:round;}.cls-5,.cls-4{fill:#fff;}.cls-6{fill:#0051af;}</style></defs><g id="Layer_2-2"><g id="Layer_2-2"><g id="all"><rect class="cls-4" x="141.08" y=".5" width="90.28" height="184.64" rx="7" ry="7"/><circle class="cls-1" cx="185.71" cy="6.82" r="1.71"/><path id="path10" class="cls-1" d="M185.9,55.23c-.06-.02-.98-.25-1.96-.25-1.86,0-2.97,1-2.97,2.49,0,1.32.93,1.98,2.06,2.33.12.04.31.1.43.14.5.16.9.39.9.79,0,.45-.46.74-1.46.74-.88,0-1.72-.25-1.9-.3v1.84c.1.02,1.1.22,2.17.22,1.54,0,3.3-.67,3.3-2.68,0-.97-.6-1.87-1.9-2.28l-.56-.18c-.33-.1-.92-.27-.92-.76,0-.38.44-.65,1.25-.65.7,0,1.54.23,1.57.24v-1.7h-.01ZM202.91,59.11c0,1.16-.89,2.1-2.08,2.1s-2.08-.94-2.08-2.1.89-2.1,2.08-2.1,2.08.94,2.08,2.1M200.83,54.98c-2.45,0-4.21,1.85-4.21,4.13s1.76,4.13,4.21,4.13,4.22-1.85,4.22-4.13-1.76-4.13-4.22-4.13M178.26,63.1h-2.01v-7.98h2.01"/><path id="path12" class="cls-1" d="M173.48,55.26c-.19-.06-.89-.29-1.84-.29-2.45,0-4.25,1.75-4.25,4.13,0,2.57,1.99,4.13,4.25,4.13.9,0,1.59-.21,1.84-.28v-2.14c-.09.05-.74.42-1.69.42-1.34,0-2.21-.94-2.21-2.13s.9-2.13,2.21-2.13c.96,0,1.61.38,1.69.43"/><g id="use14"><path id="path12-2" class="cls-1" d="M194.5,55.26c-.19-.06-.89-.29-1.84-.29-2.45,0-4.25,1.75-4.25,4.13,0,2.57,1.99,4.13,4.25,4.13.9,0,1.59-.21,1.84-.28v-2.14c-.09.05-.74.42-1.69.42-1.34,0-2.21-.94-2.21-2.13s.9-2.13,2.21-2.13c.96,0,1.61.38,1.69.43"/></g><g id="g22"><path id="path16" class="cls-1" d="M176.24,40.03c0-.55-.45-1-1-1s-1,.45-1,1v10.59c0,.55.45,1,1,1s1-.45,1-1v-10.59ZM170.75,43.79c0-.55-.45-1-1-1s-1,.45-1,1v4.84c0,.55.45,1,1,1s1-.45,1-1v-4.84ZM165.26,46.54c0-.55-.45-1-1-1s-1,.45-1,1v2.09c0,.55.45,1,1,1s1-.45,1-1"/><g id="use18"><path id="path16-2" class="cls-1" d="M174.24,40.03c0-.55.45-1,1-1s1,.45,1,1v10.59c0,.55-.45,1-1,1s-1-.45-1-1v-10.59ZM179.73,43.79c0-.55.45-1,1-1s1,.45,1,1v4.84c0,.55-.45,1-1,1s-1-.45-1-1v-4.84ZM185.22,46.54c0-.55.45-1,1-1s1,.45,1,1v2.09c0,.55-.45,1-1,1s-1-.45-1-1"/></g></g><g id="use20"><path id="path16-3" class="cls-1" d="M196.2,40.03c0-.55.45-1,1-1s1,.45,1,1v10.59c0,.55-.45,1-1,1s-1-.45-1-1v-10.59ZM201.69,43.79c0-.55.45-1,1-1s1,.45,1,1v4.84c0,.55-.45,1-1,1s-1-.45-1-1v-4.84ZM207.18,46.54c0-.55.45-1,1-1s1,.45,1,1v2.09c0,.55-.45,1-1,1s-1-.45-1-1"/><g id="use18-2"><path id="path16-4" class="cls-1" d="M198.2,40.03c0-.55-.45-1-1-1s-1,.45-1,1v10.59c0,.55.45,1,1,1s1-.45,1-1v-10.59ZM192.71,43.79c0-.55-.45-1-1-1s-1,.45-1,1v4.84c0,.55.45,1,1,1s1-.45,1-1v-4.84ZM187.22,46.54c0-.55-.45-1-1-1s-1,.45-1,1v2.09c0,.55.45,1,1,1s1-.45,1-1"/></g></g><rect class="cls-6" x="158.19" y="82.05" width="57.2" height="17.19" rx="8" ry="8"/></g></g><g id="hands"><g id="hand_1"><polygon class="cls-5" points="78.7 261.4 137.74 262.5 129.82 178.5 101.59 225.17 98.27 232.41 78.7 261.4"/><polygon class="cls-5" points="139.92 122.31 115.71 141.83 113.15 117.58 140.46 97.77 139.92 122.31"/><path class="cls-5" d="M114.17,118.08l.97-2.33v2.74l4,16,8-28-11.28,7.52,22.52-54.18c.57-1.35.8-2.83.59-4.28-.38-2.61-2.01-4.99-4.56-6.23-.61-.3-1.24-.51-1.88-.65l.1-.19-.18.17c-.9-.18-1.8-.22-2.69-.11-2.65.33-4.93,2.04-6.19,4.4l-4.25,7.99h0l-25.05,47.09c-1.5,2.85-2.09,6.1-1.67,9.29l10.95,84.28c.91,10.93-.07,18.04-3.02,25.27l29.86-47.27-16.2-61.53-.02.02h0Z"/><path class="cls-5" d="M78.7,261.4l19.16-28.9c1.01-1.93,1.89-3.78,2.65-5.62l-21.81,34.52h0Z"/><path class="cls-5" d="M148.96,210.81l1.88-27.2-1.7,28.88-1.21,9.68c.77-6.68,1.03-11.36,1.03-11.36h0Z"/><path class="cls-5" d="M140.5,123.88h0c-1.35,1.3-2.26,3.06-2.48,5.06l-11.5,76.18,11.22,57.38c.64-1.39,1.27-3.27,2.2-5.36,1.06-2.4,2.01-5.07,2.85-7.89,2.19-7.34,3.64-15.68,4.58-22.7l-.25,1.96-2,14-2,6,.76.75h-1.09c.63.49,1.37.86,2.17,1.08l.17.17h.78c.2.02.41.04.62.04"/><path class="cls-5" d="M153.13,249.32h0v-99.07l1.35-19.54c.27-2.45-.58-4.77-2.12-6.46"/><path class="cls-5" d="M153.13,249.32v-99.06l1.35-19.54h0c.27-2.46-.58-4.78-2.12-6.47"/><path class="cls-2" d="M142.92,249.24c1.02.8,2.33,1.29,3.74,1.29"/><polyline class="cls-3" points="115.71 114.67 140.62 97.73 140.62 122.41 120.02 138.9"/><path class="cls-4" d="M126.64,205.11l11.51-76.17c.49-4.54,4.57-7.83,9.11-7.35,4.54.49,7.83,4.57,7.35,9.11l-5.53,80.11s-1.66,29.8-9.02,46.31c-.93,2.1-81.7,144.78-82.33,146.17L.5,371.67l97.48-139.17c4.98-9.48,6.82-17.17,5.67-30.89l-10.95-84.28c-.42-3.19.17-6.44,1.67-9.29l29.31-55.08c1.26-2.36,3.53-4.07,6.19-4.4,1.54-.19,3.15.04,4.66.77,2.55,1.24,4.18,3.62,4.56,6.23.21,1.45-.02,2.92-.59,4.28l-22.79,54.84-1.42,3.41,16.2,61.53"/><path class="cls-3" d="M119.43,60.94h0c3.11,1.52,6.86.26,8.43-2.82l4.89-9.63"/><path class="cls-3" d="M141.74,122.97l-.71,9.66c-.21,2.92,1.99,5.47,4.91,5.67h0c2.94.21,5.49-2.02,5.67-4.96l.58-9.41"/><polygon class="cls-1" points="127.26 106.5 119.26 134.5 115.26 118.5 115.26 114.5 127.26 106.5"/></g></g></g></svg>