<?xml version="1.0" encoding="UTF-8"?><svg id="Layer_2" xmlns="http://www.w3.org/2000/svg" width="299.16" height="241.3" viewBox="0 0 299.16 241.3"><defs><style>.cls-1,.cls-2,.cls-3,.cls-4,.cls-5{stroke:#0d274d;stroke-width:2px;}.cls-1,.cls-3{fill:#a8b2c0;stroke-miterlimit:10;}.cls-2{fill:#fff;}.cls-2,.cls-3,.cls-4,.cls-5{stroke-linecap:round;}.cls-2,.cls-4,.cls-5{stroke-linejoin:round;}.cls-6,.cls-5{fill:#0d274d;}.cls-4{fill:none;}</style></defs><g id="Layer_2-2"><g id="all"><path class="cls-5" d="M161.15,4.87c7.02,2.14,12.51,9.03,12.24,16.36h0c-.2,5.41-3.1,10.36-7.71,13.19l-5.2,3.18-6.85-30.01,8.31-2.42"/><path class="cls-5" d="M162.31,109.97c6.03-10.32,6.66-26.18,1.47-36.95l-11.83-1.65-18.85,12.02-.63,23.21,29.84,3.38h0Z"/><path class="cls-1" d="M108.01,83l-3.92-16.51c-4.36-18.34,5.92-37,23.75-43.11l27.94-9.58c6.46,4.35,10.82,11.62,11.16,19.99l.96,24.16c.56,13.97-10.32,25.75-24.29,26.3l-1.78,11.51-41.62.14,7.79-12.92"/><path class="cls-2" d="M30.28,240.3c-19.99,0-34.1-19.61-27.73-38.57l36.18-86.66c4.2-12.51,15.6-20.49,29.39-20.59l92.96-.44c5.6-.04,11.09,1.78,15.77,4.9,7.47,4.99,12.19,13.2,13.29,22.12l14.72,119.23H30.28Z"/><path class="cls-4" d="M32.23,198.94h47.69c5.56,0,13.53.37,19.08.7"/><polyline class="cls-2" points="79.97 134.14 74.79 146.77 53.39 198.94"/><path class="cls-4" d="M32.23,240.3l64.56-8.94-1.53-4.27c-.24-1.35-1.38-2.41-1.14-3.76l1.47-6.15"/><path class="cls-1" d="M111.18,200.67l41.45,4.64c2.85.32,5.52,1.54,7.62,3.49l14.83,13.62c1.35,1.24,1.44,3.34.21,4.69h0c-1.06,1.17-2.8,1.43-4.16.63l-2.17-1.28"/><path class="cls-1" d="M95.47,217.58l19.23,4.15c5.1,1.16,10.42.81,15.32-1.01l14.44-5.35,18.96,13.13c1.22.85,3.45.84,4.51-.03.09-.08.13-.18.21-.26,1.22-1.37,1.08-3.49-.31-4.71l-17.58-15.28c-1.51-1.31-3.41-2.12-5.41-2.29l-17.4-2.97c-9.6-1.64-18.61-2.73-28.33-3.37l-3.63,17.99h0Z"/><polygon class="cls-6" points="76.38 142.88 63.65 198.94 53.39 198.94 76.38 142.88"/><path class="cls-5" d="M96.79,231.36h0c.9,0,1.71-.54,2.06-1.37l.75-1.78,2.76-9.28-6.9-1.35-1.35,5.75v2.48l.45,3.58c.14,1.12,1.09,1.96,2.22,1.96h.01Z"/><path class="cls-5" d="M86.68,113.21c12.11.92,24.56-10.89,28.92-22.22.14-.35.27-.71.39-1.07,4.15-12.09-.88-23.81-.67-36.59l4.94-14.96s28.23-7.81,40.89-33.5h0s-14.28-1.75-19.36-2.13l-21.94-1.67c-2.12-.16-4.25-.03-6.34.38-9.63,1.92-17.19,9.52-21.94,17.75-2.59,4.49-4.41,9.33-5.33,14.44-1.04,5.74-1.23,11.81-4.03,17.06-3.81,7.15-11.3,12.76-17.28,18.82-.1.1-.2.21-.3.31-14.9,15.47-8.7,43.44,22.05,43.39"/><path class="cls-3" d="M118.22,53.07c-4.78.19-8.79-3.64-8.75-8.48.03-4.33,3.48-8,7.79-8.31,2.23-.16,4.3.55,5.9,1.84"/><path class="cls-2" d="M160.56,234.15h-69.92c-1.66,0-3.01,1.35-3.01,3.01h0c0,1.66,1.35,3.01,3.01,3.01h177.59v-4.51"/><path class="cls-2" d="M282.9,240.18h-120c-1.49,0-2.54-1.21-2.34-2.71l12.18-90.77c.09-.69.73-1.25,1.42-1.25h122.91c.69,0,1.18.56,1.08,1.25l-12.18,90.77c-.2,1.49-1.57,2.71-3.07,2.71h0Z"/><circle class="cls-2" cx="113.58" cy="57.82" r="9.31"/></g></g></svg>