<?xml version="1.0" encoding="UTF-8"?><svg id="Layer_2" xmlns="http://www.w3.org/2000/svg" width="302.54" height="290.86" viewBox="0 0 302.54 290.86"><defs><style>.cls-1{fill:#fff;}.cls-1,.cls-2,.cls-3{stroke:#0d274d;stroke-linecap:round;stroke-linejoin:round;stroke-width:2px;}.cls-4,.cls-3{fill:#0d274d;}.cls-2{fill:none;}</style></defs><g id="Layer_2-2"><g id="all"><path class="cls-1" d="M157.11,57.36c6.71,1.93,12.03,8.41,11.88,15.39h0c-.11,5.15-2.8,9.9-7.15,12.65l-4.9,3.1-8.22-33.69,8.39,2.54"/><path class="cls-1" d="M107.67,132.45l-4.87-19.21c-3.89-15.36,4.51-31.17,19.42-36.54l29.9-10.76c6.2,4.05,10.46,10.9,10.9,18.86l1.26,22.97c.73,13.28-9.45,24.64-22.73,25.37l-.83,10.55-38.43-.1,5.37-11.15"/><path class="cls-1" d="M77.89,89.37c3.13,8.84,15.79,12.5,23.15,6.69,8.55-6.74,7.62-20.58,15.08-28.5,3.07-3.26,7.32-5.22,10.44-8.43,5.34-5.49,6.52-14.58,2.76-21.25-3.76-6.67-12.16-10.36-19.61-8.62,3.27-6.72,2.69-15.29-1.87-21.21-4.56-5.92-13.04-8.66-20.05-6.07-7.01,2.59-11.73,10.57-10.17,17.88-6.24-7.33-18.98-8.24-25.58-1.23-6.61,7.01-4.26,20.49,4.65,24.13-7.79-5.01-19.97.88-20.88,10.09-.91,9.22,9.89,17.37,18.5,13.98-6.76,4.65-6.01,15.97.22,21.32,6.23,5.34,15.71,5.37,23.27,2.16"/><path class="cls-1" d="M121.51,86.39s26.32-8.9,35.8-25.88l1.41-2.58c-4.5-1.56-9.63-3.61-15.01-3.92l-23.24-1.36c-2.24-.13-4.5.05-6.7.53-10.15,2.21-18.01,10.39-22.88,19.19-2.66,4.8-5.76,20.86,3.36,37.51,2.06,3.75,12.11,17.41,12.11,17.41,0,0,7.81-12.03,9.62-26.49"/><path class="cls-1" d="M30.28,289.85c-19.99,0-34.1-19.61-27.73-38.57l36.18-86.66c4.2-12.51,15.6-20.49,29.39-20.59l92.96-.44c5.6-.04,11.09,1.78,15.77,4.9,7.47,4.99,12.19,13.2,13.29,22.12l14.72,119.23H30.28Z"/><path class="cls-2" d="M32.24,248.49h47.69c5.31,0,12.84.28,18.15.58"/><polyline class="cls-1" points="79.97 183.69 74.8 196.32 53.4 248.49"/><path class="cls-2" d="M98.28,249.09l-4.16,23.8c-.24,1.35.91,2.41,1.14,3.76l1.53,4.27-64.56,8.94"/><path class="cls-1" d="M111.19,250.23l41.45,4.64c2.85.32,5.52,1.54,7.62,3.49l14.83,13.62c1.35,1.24,1.44,3.34.21,4.69h0c-1.06,1.17-2.8,1.43-4.16.63l-2.17-1.28"/><path class="cls-1" d="M95.86,267.6l18.85,3.69c5.1,1.16,10.42.81,15.32-1.01l14.44-5.35,18.96,13.13c1.22.85,3.45.84,4.51-.03.09-.08.13-.18.21-.26,1.22-1.37,1.08-3.49-.31-4.71l-17.58-15.28c-1.51-1.31-3.41-2.12-5.41-2.29l-17.4-2.97c-10.46-1.78-18.78-2.62-29.36-3.22l-1.14,7.07-1.08,11.24"/><polygon class="cls-4" points="76.39 192.44 63.66 248.49 53.4 248.49 76.39 192.44"/><path class="cls-3" d="M96.79,280.91h0c.9,0,1.71-.54,2.06-1.37l.75-1.78,2.76-9.28-7.16-1.84-1.09,6.24v2.48l.45,3.58c.14,1.12,1.09,1.96,2.22,1.96h.01Z"/><path class="cls-1" d="M163.94,283.7h-69.92c-1.66,0-3.01,1.35-3.01,3.01h0c0,1.66,1.35,3.01,3.01,3.01h177.59"/><path class="cls-1" d="M286.28,289.73h-120c-1.49,0-2.54-1.21-2.34-2.71l12.18-90.77c.09-.69.73-1.25,1.42-1.25h122.91c.69,0,1.18.56,1.08,1.25l-12.18,90.77c-.2,1.49-1.57,2.71-3.07,2.71Z"/><path class="cls-1" d="M115.98,100.79c-4.46-.26-7.87-4.09-7.61-8.56.26-4.46,4.09-7.87,8.56-7.61,2.04.12,3.86.98,5.2,2.31"/></g></g></svg>