<?xml version="1.0" encoding="UTF-8"?>
<svg id="Layer_2" xmlns="http://www.w3.org/2000/svg" version="1.1" viewBox="0 0 116.3 238.4">
  <!-- Generator: Adobe Illustrator 29.5.1, SVG Export Plug-In . SVG Version: 2.1.0 Build 141)  -->
  <defs>
    <style>
      .st0 {
        stroke-linecap: round;
        stroke-width: .7px;
      }

      .st0, .st1, .st2, .st3 {
        fill: #fff;
      }

      .st0, .st1, .st3, .st4 {
        stroke-linejoin: round;
      }

      .st0, .st1, .st4 {
        stroke: #0b2750;
      }

      .st1, .st3, .st4 {
        stroke-width: .8px;
      }

      .st3 {
        stroke: #fff;
      }

      .st4 {
        fill: none;
      }
    </style>
  </defs>
  <g id="network1_svg">
    <g id="imac_svg">
      <g id="laptop">
        <g id="screen">
          <path class="st0" d="M68.9,42.2l-.9,1.2c-.4.5-1,.8-1.7.8h-17c-.7,0-1.3-.3-1.7-.8l-.9-1.2h22.2,0Z"/>
          <path class="st0" d="M115.3.4H.9C.6.4.4.6.4.9l13.8,40.1c0,.7.5,1.2,1.2,1.2h85.6c.7,0,1.2-.5,1.2-1.2L115.9.9c0-.3-.2-.6-.6-.6h0ZM99,37.5H17.4L7.1,5h102.3l-10.3,32.5h0Z"/>
          <polygon class="st0" points="7.1 5 109.3 5 99 37.6 17.4 37.6 7.1 5"/>
        </g>
        <g id="bottom">
          <path id="base" class="st0" d="M101.6,42.4H14.7c-.3,0-.6.2-.6.6v60.7c0,.7.5,1.2,1.2,1.2h85.6c.7,0,1.2-.5,1.2-1.2v-60.7c0-.3-.2-.6-.6-.6h0Z"/>
          <rect id="key_back" class="st0" x="19.1" y="48.7" width="78.3" height="30.3"/>
          <rect id="touch_pad" class="st0" x="43.8" y="81.2" width="28.8" height="21.5"/>
          <g id="keys">
            <g id="column">
              <rect id="key" class="st0" x="21.4" y="51.3" width="4.8" height="4.8"/>
              <rect id="key-2" class="st0" x="21.4" y="58.2" width="4.8" height="4.8"/>
              <rect id="key-3" class="st0" x="21.4" y="65.1" width="4.8" height="4.8"/>
              <rect id="key-4" class="st0" x="21.4" y="71.9" width="4.8" height="4.8"/>
            </g>
            <g id="column-2">
              <rect id="key-5" class="st0" x="28.3" y="51.3" width="4.8" height="4.8"/>
              <rect id="key-6" class="st0" x="28.3" y="58.2" width="4.8" height="4.8"/>
              <rect id="key-7" class="st0" x="28.3" y="65.1" width="4.8" height="4.8"/>
              <rect id="key-8" class="st0" x="28.3" y="71.9" width="4.8" height="4.8"/>
            </g>
            <g id="column-3">
              <rect id="key-9" class="st0" x="35.2" y="51.3" width="4.8" height="4.8"/>
              <rect id="key-10" class="st0" x="35.2" y="58.2" width="4.8" height="4.8"/>
              <rect id="key-11" class="st0" x="35.2" y="65.1" width="4.8" height="4.8"/>
              <rect id="key-12" class="st0" x="35.2" y="71.9" width="4.8" height="4.8"/>
            </g>
            <g id="column-4">
              <rect id="key-13" class="st0" x="42" y="51.3" width="4.8" height="4.8"/>
              <rect id="key-14" class="st0" x="42" y="58.2" width="4.8" height="4.8"/>
              <rect id="key-15" class="st0" x="42" y="65.1" width="4.8" height="4.8"/>
              <rect id="key-16" class="st0" x="42" y="71.9" width="4.8" height="4.8"/>
            </g>
            <g id="column-5">
              <rect id="key-17" class="st0" x="48.9" y="51.3" width="4.8" height="4.8"/>
              <rect id="key-18" class="st0" x="48.9" y="58.2" width="4.8" height="4.8"/>
              <rect id="key-19" class="st0" x="48.9" y="65.1" width="4.8" height="4.8"/>
              <rect id="key-20" class="st0" x="48.9" y="71.9" width="4.8" height="4.8"/>
            </g>
            <g id="column-6">
              <rect id="key-21" class="st0" x="55.8" y="51.3" width="4.8" height="4.8"/>
              <rect id="key-22" class="st0" x="55.8" y="58.2" width="4.8" height="4.8"/>
              <rect id="key-23" class="st0" x="55.8" y="65.1" width="4.8" height="4.8"/>
              <rect id="key-24" class="st0" x="55.8" y="71.9" width="4.8" height="4.8"/>
            </g>
            <g id="column-7">
              <rect id="key-25" class="st0" x="62.7" y="51.3" width="4.8" height="4.8"/>
              <rect id="key-26" class="st0" x="62.7" y="58.2" width="4.8" height="4.8"/>
              <rect id="key-27" class="st0" x="62.7" y="65.1" width="4.8" height="4.8"/>
              <rect id="key-28" class="st0" x="62.7" y="71.9" width="4.8" height="4.8"/>
            </g>
            <g id="column-8">
              <rect id="key-29" class="st0" x="76.5" y="51.3" width="4.8" height="4.8"/>
              <rect id="key-30" class="st0" x="76.5" y="58.2" width="4.8" height="4.8"/>
              <rect id="key-31" class="st0" x="76.5" y="65.1" width="4.8" height="4.8"/>
              <rect id="key-32" class="st0" x="76.5" y="71.9" width="4.8" height="4.8"/>
            </g>
            <g id="column-9">
              <rect id="key-33" class="st0" x="69.6" y="51.3" width="4.8" height="4.8"/>
              <rect id="key-34" class="st0" x="69.6" y="58.2" width="4.8" height="4.8"/>
              <rect id="key-35" class="st0" x="69.6" y="65.1" width="4.8" height="4.8"/>
              <rect id="key-36" class="st0" x="69.6" y="71.9" width="4.8" height="4.8"/>
            </g>
            <g id="column-10">
              <rect id="key-37" class="st0" x="83.3" y="51.3" width="4.8" height="4.8"/>
              <rect id="key-38" class="st0" x="83.3" y="58.2" width="4.8" height="4.8"/>
              <rect id="key-39" class="st0" x="83.3" y="65.1" width="4.8" height="4.8"/>
              <rect id="key-40" class="st0" x="83.3" y="71.9" width="4.8" height="4.8"/>
            </g>
            <g id="column-11">
              <rect id="key-41" class="st0" x="90.2" y="51.3" width="4.8" height="4.8"/>
              <rect id="key-42" class="st0" x="90.2" y="58.2" width="4.8" height="4.8"/>
              <rect id="key-43" class="st0" x="90.2" y="65.1" width="4.8" height="4.8"/>
              <rect id="key-44" class="st0" x="90.2" y="71.9" width="4.8" height="4.8"/>
            </g>
          </g>
        </g>
      </g>
      <g id="hands">
        <g id="hand_2">
          <path id="finger" class="st1" d="M36.6,99.9l-3.2-9.2c-.2-.5-.2-1.1,0-1.6v-.3c0,0,4-15.3,4-15.3v-.5c.1,0,.4-1.1.4-1.1v-.2c.4-.9,1.2-1.5,2.1-1.6.2,0,.4,0,.6,0,.6.1,1.1.5,1.5,1,.3.4.5,1,.4,1.6v.2s-2.6,16.9-2.6,16.9l5.9,17.3.2,2-.2-2.1,2.8-15.4.2-1.2.2-1.5c.1-1.3,1.3-2.2,2.6-2.1,1.3.1,2.2,1.3,2.1,2.6v1.6s0,.5,0,.5l.7,16.8c.2,5-.6,9.9-2.3,14.6,0,.2-.1.3-.2.5l-2.4,6.2,22.6,96.9-26.1,11.6s-9.5-98.1-10.1-99.4c-3.2-8-14.1-34.8-14.3-35.5-.2-.5-.2-1.1,0-1.7.4-1.8,2-2.9,3.8-2.6"/>
          <path id="fold_color" class="st3" d="M28,107.2s-2.2-7.2-2.7-8.5c0,0,0-.1,0-.1-.2-.8-.2-1.7.2-2.5.7-1.3,2.1-1.9,3.6-1.7,0,0,2.9,11.3,3,11.3"/>
          <path id="fold" class="st4" d="M28,107.2s-2.2-7.2-2.7-8.5c0,0,0-.1,0-.1-.2-.8-.2-1.7.2-2.5.7-1.3,2.1-1.9,3.6-1.7,0,0,.1,0,.2,0"/>
          <path id="finger_fold" class="st2" d="M37.2,102c0,0-4-11.7-4.1-11.7-1.8-.4-3.5.8-3.9,2.6-.1.6,0,1.1,0,1.6.2.7,3,9,3,9"/>
          <path id="finger_fold-2" class="st4" d="M33.3,90.4c0,0-.2,0-.2,0-1.8-.4-3.5.8-3.9,2.6-.1.6,0,1.1,0,1.6.2.7,3,9,3,9"/>
          <path id="nail" class="st4" d="M39.9,69.9l-.7,2.4c0,.2-.2.4-.3.5-.4.5-1,.7-1.6.5"/>
          <path id="nail-2" class="st4" d="M50.7,86.8v2.4c-.2,1.1.6,2,1.7,2.1h1.3"/>
        </g>
      </g>
    </g>
  </g>
</svg>