<?xml version="1.0" encoding="UTF-8"?><svg id="Layer_2" xmlns="http://www.w3.org/2000/svg" width="204.54" height="359.81" viewBox="0 0 204.54 359.81"><defs><style>.cls-1{fill:#07182d;}.cls-2{fill:#fff;}.cls-2,.cls-3{stroke:#0b2750;stroke-miterlimit:10;}.cls-3{fill:none;}</style></defs><g id="network1_svg"><g id="network_group"><polyline id="Line_3" class="cls-3" points="104.46 26.77 104.46 147.19 96.16 147.19 96.16 206.84"/><polyline id="Line_1" class="cls-3" points="41.88 116.67 41.88 208.02 32.91 208.02 31.78 338.37"/><polyline id="Line_2" class="cls-3" points="159.15 91.4 159.15 188.46 166.66 188.46 166.66 324.47"/><g id="cloud"><path id="cloud-2" class="cls-2" d="M197.78,100.84c5.89,0,10.8-9.88-.72-14.02,2.07-4.35-2.66-14.02-13.46-10.86-7.02-14.42-17.96-6.92-17.96-6.92,0,0-9.13-11.53-16.03-1.06-10-4.35-16.48,1.46-18.48,13.11-11.64-1.39-21.58,19.68-1.6,19.68l68.26.08h0Z"/></g><g id="cloud-2"><path id="cloud-2-2" class="cls-2" d="M76.11,125.41c5.59,0,10.25-9.37-.69-13.3,1.97-4.13-2.52-13.3-12.77-10.31-6.66-13.68-17.04-6.56-17.04-6.56,0,0-8.66-10.94-15.21-1.01-9.49-4.13-15.64,1.38-17.53,12.44-11.04-1.31-20.48,18.67-1.52,18.67l64.77.07h0Z"/></g><g id="cloud-3"><path id="cloud-2-3" class="cls-2" d="M144.2,41.26c6.45,0,11.81-10.81-.79-15.34,2.27-4.76-2.91-15.34-14.72-11.88-7.68-15.78-19.65-7.57-19.65-7.57,0,0-9.99-12.61-17.54-1.16-10.94-4.76-18.03,1.59-20.21,14.34-12.73-1.52-23.61,21.53-1.75,21.53l74.67.08h0Z"/></g><g id="wifi_svg"><path class="cls-1" d="M104.66,226.02c-.34,0-.67-.13-.93-.39-3.56-3.56-9.35-3.56-12.92,0-.51.51-1.35.51-1.87,0s-.51-1.35,0-1.87c4.59-4.59,12.06-4.59,16.65,0,.51.51.51,1.35,0,1.87-.26.26-.6.39-.93.39Z"/><path class="cls-1" d="M101.08,229.58c-.34,0-.67-.13-.93-.39-.77-.77-1.8-1.19-2.89-1.19s-2.12.42-2.89,1.19c-.51.51-1.35.51-1.87,0-.51-.51-.51-1.35,0-1.87,1.27-1.27,2.96-1.97,4.75-1.97s3.48.7,4.75,1.97c.51.51.51,1.35,0,1.87-.25.25-.59.38-.93.38Z"/><path class="cls-1" d="M108.29,222.39c-.34,0-.67-.13-.93-.39-5.57-5.56-14.61-5.56-20.17,0-.51.51-1.35.51-1.87,0s-.51-1.35,0-1.87c3.19-3.19,7.44-4.95,11.96-4.95s8.76,1.76,11.96,4.95c.51.51.51,1.35,0,1.87-.26.26-.6.39-.94.39Z"/></g><g id="wifi_svg-2"><path class="cls-1" d="M167.73,344.83c-.33-.07-.63-.27-.83-.57-2.75-4.22-8.41-5.42-12.64-2.68-.61.4-1.43.22-1.83-.39s-.22-1.43.39-1.83c5.45-3.54,12.75-1.99,16.29,3.46.4.61.22,1.43-.39,1.83-.31.2-.67.26-.99.19Z"/><path class="cls-1" d="M163.49,347.58c-.33-.07-.63-.27-.83-.57-.59-.91-1.51-1.54-2.57-1.77s-2.16-.02-3.07.57c-.61.4-1.43.22-1.83-.39-.4-.61-.22-1.43.39-1.83,1.5-.98,3.3-1.31,5.06-.94s3.26,1.41,4.24,2.91c.4.61.22,1.43-.39,1.83-.3.2-.66.25-.99.18Z"/><path class="cls-1" d="M172.03,342.03c-.33-.07-.63-.27-.83-.57-4.29-6.59-13.14-8.47-19.73-4.19-.61.4-1.43.22-1.83-.39s-.22-1.43.39-1.83c3.79-2.46,8.3-3.3,12.72-2.36s8.21,3.54,10.67,7.32c.4.61.22,1.43-.39,1.83-.31.2-.67.26-1,.19Z"/></g><g id="wifi_svg-3"><path class="cls-1" d="M46.27,353.78c-.33.08-.69.03-1-.17-4.27-2.67-9.92-1.36-12.59,2.91-.39.62-1.2.81-1.82.42s-.81-1.2-.42-1.82c3.44-5.51,10.72-7.19,16.23-3.75.62.39.81,1.2.42,1.82-.19.31-.5.51-.82.59Z"/><path class="cls-1" d="M43.59,358.06c-.33.08-.69.03-1-.17-.92-.58-2.02-.76-3.08-.51s-1.97.89-2.54,1.81c-.39.62-1.2.81-1.82.42-.62-.39-.81-1.2-.42-1.82.95-1.52,2.44-2.58,4.19-2.99s3.55-.1,5.07.85c.62.39.81,1.2.42,1.82-.19.31-.49.51-.82.58Z"/><path class="cls-1" d="M48.99,349.42c-.33.08-.69.03-1-.17-6.67-4.17-15.49-2.13-19.66,4.54-.39.62-1.2.81-1.82.42s-.81-1.2-.42-1.82c2.39-3.83,6.13-6.5,10.54-7.51,4.4-1.02,8.93-.26,12.76,2.14.62.39.81,1.2.42,1.82-.2.31-.5.52-.83.59Z"/></g></g></g></svg>