<?xml version="1.0" encoding="UTF-8"?><svg id="Layer_2" xmlns="http://www.w3.org/2000/svg" width="321.29" height="252.55" viewBox="0 0 321.29 252.55"><defs><style>.cls-1{fill:#a8b2c0;}.cls-1,.cls-2,.cls-3{stroke:#0d274d;stroke-linecap:round;stroke-linejoin:round;stroke-width:2px;}.cls-2{fill:#fff;}.cls-3{fill:none;}</style></defs><g id="Layer_2-2"><g id="all"><path class="cls-2" d="M166.41,8.75l6.95,49.01c4.54-3.72,9.42-8.05,10.02-13.89.48-4.64-1.93-9.3-1.05-13.87.51-2.66,2.1-5.02,2.58-7.68.84-4.64-2.28-9.66-6.81-10.96l-11.69-2.61"/><path class="cls-1" d="M107.45,101.45l.63-36.02c.41-23.45,17.48-43.28,40.61-47.16l18.5-3.1c6.46,4.64,10.71,12.19,10.8,20.76l.26,24.72c.15,14.29-11.31,25.99-25.6,26.14l5.36,20.39-46.09-3.88-4.46-1.84"/><path class="cls-2" d="M31.59,251.54c-20.9,0-35.63-20.5-28.98-40.31l35.29-78.55c9.17-20.42,29.45-33.58,51.84-33.64l80.84-.23c22.14-.07,41.04,15.96,44.57,37.81l18.59,114.91H31.59Z"/><path class="cls-3" d="M90.96,139.75c0,14.26-16.68,61.63-16.68,61.63"/><path class="cls-3" d="M196.96,131.54c12,18,7.2,35.81,6,42"/><path class="cls-3" d="M123.9,210.92l35.57,3.98c2.98.33,5.77,1.61,7.97,3.65l15.5,14.24c1.41,1.3,1.51,3.49.22,4.9h0c-1.11,1.22-2.93,1.5-4.35.66l-2.27-1.34"/><path class="cls-3" d="M38.28,251.54c34.85-.92,64.37-21.3,64.37-21.3l7.15,1.63,10.02,2.28c5.33,1.21,10.89.85,16.01-1.05l15.09-7.6,19.82,13.72c1.28.88,3.61.88,4.72-.03.1-.08.14-.18.22-.27,1.27-1.44,1.13-3.65-.33-4.92l-18.37-15.97c-1.58-1.37-3.56-2.22-5.65-2.4l-18.19-3.1c-13.26-2.26-46.56-8.15-58.85-10.33l-36,49.35h-.01Z"/><path class="cls-2" d="M169.71,245.54h-73.8c-1.66,0-3,1.34-3,3h0c0,1.66,1.34,3,3,3h187.18"/><path class="cls-2" d="M298.54,251.54h-126.36c-1.57,0-2.68-1.28-2.47-2.85l12.83-95.58c.1-.73.77-1.32,1.49-1.32h129.43c.73,0,1.24.59,1.14,1.32l-12.83,95.58c-.21,1.57-1.66,2.85-3.23,2.85Z"/><path class="cls-2" d="M304.21,251.54h-126.36c-1.57,0-2.68-1.28-2.47-2.85l12.83-95.58c.1-.73.77-1.32,1.49-1.32h129.43c.73,0,1.24.59,1.14,1.32l-12.83,95.58c-.21,1.57-1.66,2.85-3.23,2.85Z"/><path class="cls-2" d="M118.96,53.54c5.66,19.41-6.66,28.38-11.18,29.14,0,0-18.89-17.17-10.45-43.17,1.52-4.7,2.44-12.3,4.06-16.98,3.52-10.14,12.48-18.2,22.93-20.63,8.76-2.04,17.94-.3,26.58,2.19,8.64,2.49,17.13,5.73,26.06,6.78,0,0-4.84,15.99-16.65,15.55-3.56-.13-7.35-.83-10.57.69-3.26,1.54-4.89,5.14-7.28,7.84-4.34,4.91-11.81,6.78-17.95,4.48.03,0-5.99,12.6-5.55,14.11h0Z"/><path class="cls-1" d="M122.62,56.09c-4.89.05-8.87-3.99-8.68-8.93.17-4.42,3.79-8.06,8.21-8.26,2.28-.1,4.38.69,5.97,2.06"/><path class="cls-2" d="M32.28,251.54h42v-49.35c-2.92-.52-4.65-.82-4.65-.82,0,0-42.6-6.22-53.29-.54"/></g></g></svg>